%TF.GenerationSoftware,KiCad,Pcbnew,(7.0.0)*%
%TF.CreationDate,2023-07-17T15:36:44+02:00*%
%TF.ProjectId,SupportCoral,53757070-6f72-4744-936f-72616c2e6b69,rev?*%
%TF.SameCoordinates,Original*%
%TF.FileFunction,Copper,L1,Top*%
%TF.FilePolarity,Positive*%
%FSLAX46Y46*%
G04 Gerber Fmt 4.6, Leading zero omitted, Abs format (unit mm)*
G04 Created by KiCad (PCBNEW (7.0.0)) date 2023-07-17 15:36:44*
%MOMM*%
%LPD*%
G01*
G04 APERTURE LIST*
%TA.AperFunction,ComponentPad*%
%ADD10R,1.700000X1.700000*%
%TD*%
%TA.AperFunction,ComponentPad*%
%ADD11O,1.700000X1.700000*%
%TD*%
%TA.AperFunction,ComponentPad*%
%ADD12C,4.000000*%
%TD*%
%TA.AperFunction,ComponentPad*%
%ADD13C,1.524000*%
%TD*%
%TA.AperFunction,Conductor*%
%ADD14C,0.250000*%
%TD*%
G04 APERTURE END LIST*
D10*
%TO.P,REF\u002A\u002A,1*%
%TO.N,N/C*%
X59039999Y-57999999D03*
D11*
%TO.P,REF\u002A\u002A,2*%
%TO.N,GND*%
X59039999Y-55459999D03*
%TO.P,REF\u002A\u002A,3*%
%TO.N,Out*%
X61579999Y-57999999D03*
%TO.P,REF\u002A\u002A,4*%
%TO.N,N/C*%
X61579999Y-55459999D03*
%TO.P,REF\u002A\u002A,5*%
X64119999Y-57999999D03*
%TO.P,REF\u002A\u002A,6*%
X64119999Y-55459999D03*
%TO.P,REF\u002A\u002A,7*%
X66659999Y-57999999D03*
%TO.P,REF\u002A\u002A,8*%
X66659999Y-55459999D03*
%TO.P,REF\u002A\u002A,9*%
X69199999Y-57999999D03*
%TO.P,REF\u002A\u002A,10*%
%TO.N,RX*%
X69199999Y-55459999D03*
%TO.P,REF\u002A\u002A,11*%
%TO.N,N/C*%
X71739999Y-57999999D03*
%TO.P,REF\u002A\u002A,12*%
%TO.N,TX*%
X71739999Y-55459999D03*
%TO.P,REF\u002A\u002A,13*%
%TO.N,N/C*%
X74279999Y-57999999D03*
%TO.P,REF\u002A\u002A,14*%
X74279999Y-55459999D03*
%TO.P,REF\u002A\u002A,15*%
X76819999Y-57999999D03*
%TO.P,REF\u002A\u002A,16*%
X76819999Y-55459999D03*
%TO.P,REF\u002A\u002A,17*%
X79359999Y-57999999D03*
%TO.P,REF\u002A\u002A,18*%
X79359999Y-55459999D03*
%TO.P,REF\u002A\u002A,19*%
X81899999Y-57999999D03*
%TO.P,REF\u002A\u002A,20*%
X81899999Y-55459999D03*
%TO.P,REF\u002A\u002A,21*%
X84439999Y-57999999D03*
%TO.P,REF\u002A\u002A,22*%
X84439999Y-55459999D03*
%TO.P,REF\u002A\u002A,23*%
X86979999Y-57999999D03*
%TO.P,REF\u002A\u002A,24*%
X86979999Y-55459999D03*
%TO.P,REF\u002A\u002A,25*%
X89519999Y-57999999D03*
%TO.P,REF\u002A\u002A,26*%
X89519999Y-55459999D03*
%TO.P,REF\u002A\u002A,27*%
X92059999Y-57999999D03*
%TO.P,REF\u002A\u002A,28*%
X92059999Y-55459999D03*
%TO.P,REF\u002A\u002A,29*%
X94599999Y-57999999D03*
%TO.P,REF\u002A\u002A,30*%
X94599999Y-55459999D03*
%TO.P,REF\u002A\u002A,31*%
X97139999Y-57999999D03*
%TO.P,REF\u002A\u002A,32*%
X97139999Y-55459999D03*
%TO.P,REF\u002A\u002A,33*%
X99679999Y-57999999D03*
%TO.P,REF\u002A\u002A,34*%
X99679999Y-55459999D03*
%TO.P,REF\u002A\u002A,35*%
X102219999Y-57999999D03*
%TO.P,REF\u002A\u002A,36*%
X102219999Y-55459999D03*
%TO.P,REF\u002A\u002A,37*%
X104759999Y-57999999D03*
%TO.P,REF\u002A\u002A,38*%
X104759999Y-55459999D03*
%TO.P,REF\u002A\u002A,39*%
%TO.N,+*%
X107299999Y-57999999D03*
%TO.P,REF\u002A\u002A,40*%
%TO.N,N/C*%
X107299999Y-55459999D03*
%TD*%
D12*
%TO.P,REF\u002A\u002A,1*%
%TO.N,GND*%
X54229000Y-56769000D03*
%TD*%
%TO.P,REF\u002A\u002A,1*%
%TO.N,GND*%
X112141000Y-56769000D03*
%TD*%
D10*
%TO.P,Motion sensor,1*%
%TO.N,Out*%
X38199999Y-71599999D03*
D11*
%TO.P,Motion sensor,2*%
%TO.N,+*%
X38199999Y-74139999D03*
%TO.P,Motion sensor,3*%
%TO.N,GND*%
X38199999Y-76679999D03*
%TD*%
D13*
%TO.P,Alhora,0*%
%TO.N,N/C*%
X104600000Y-65000000D03*
%TO.P,Alhora,1*%
X102060000Y-65000000D03*
%TO.P,Alhora,2*%
X99520000Y-65000000D03*
%TO.P,Alhora,4*%
X94440000Y-65000000D03*
%TO.P,Alhora,5*%
X91900000Y-65000000D03*
%TO.P,Alhora,6*%
X89360000Y-65000000D03*
%TO.P,Alhora,7*%
X86820000Y-65000000D03*
%TO.P,Alhora,8*%
X84280000Y-65000000D03*
%TO.P,Alhora,9*%
X81740000Y-65000000D03*
%TO.P,Alhora,10*%
X79200000Y-65000000D03*
%TO.P,Alhora,11*%
X76660000Y-65000000D03*
%TO.P,Alhora,12*%
X74120000Y-65000000D03*
%TO.P,Alhora,13*%
X102060000Y-87860000D03*
X104600000Y-87860000D03*
%TO.P,Alhora,14*%
X99520000Y-87860000D03*
%TO.P,Alhora,15*%
X96980000Y-87860000D03*
%TO.P,Alhora,16*%
X94440000Y-87860000D03*
%TO.P,Alhora,19*%
X86820000Y-87860000D03*
%TO.P,Alhora,20*%
X84280000Y-87860000D03*
%TO.P,Alhora,21*%
X81740000Y-87860000D03*
%TO.P,Alhora,22*%
X79200000Y-87860000D03*
%TO.P,Alhora,23*%
X76660000Y-87860000D03*
%TO.P,Alhora,24*%
X74120000Y-87860000D03*
%TO.P,Alhora,GND*%
%TO.N,GND*%
X96980000Y-65000000D03*
%TO.P,Alhora,RX*%
%TO.N,RX*%
X91900000Y-87860000D03*
%TO.P,Alhora,TX*%
%TO.N,TX*%
X89360000Y-87860000D03*
%TD*%
D14*
%TO.N,RX*%
X118038000Y-61722000D02*
X91900000Y-87860000D01*
X118038000Y-55554000D02*
X118038000Y-61722000D01*
X72260000Y-52400000D02*
X114884000Y-52400000D01*
X114884000Y-52400000D02*
X118038000Y-55554000D01*
X69200000Y-55460000D02*
X72260000Y-52400000D01*
%TO.N,Out*%
X61580000Y-58820000D02*
X61580000Y-58000000D01*
X48800000Y-71600000D02*
X61580000Y-58820000D01*
X38200000Y-71600000D02*
X48800000Y-71600000D01*
%TO.N,+*%
X98460000Y-74140000D02*
X107300000Y-65300000D01*
X107300000Y-65300000D02*
X107300000Y-58000000D01*
X38200000Y-74140000D02*
X98460000Y-74140000D01*
%TO.N,TX*%
X114033000Y-53200000D02*
X117221000Y-56388000D01*
X117221000Y-56388000D02*
X117221000Y-59999000D01*
X117221000Y-59999000D02*
X89360000Y-87860000D01*
X71740000Y-55460000D02*
X74000000Y-53200000D01*
X74000000Y-53200000D02*
X114033000Y-53200000D01*
%TD*%
%TA.AperFunction,Conductor*%
%TO.N,GND*%
G36*
X106087257Y-58646976D02*
G01*
X106131575Y-58685842D01*
X106258395Y-58866961D01*
X106258401Y-58866968D01*
X106261505Y-58871401D01*
X106428599Y-59038495D01*
X106433031Y-59041598D01*
X106433033Y-59041600D01*
X106621624Y-59173653D01*
X106660489Y-59217971D01*
X106674500Y-59275228D01*
X106674500Y-64989548D01*
X106665061Y-65037001D01*
X106638181Y-65077229D01*
X105802347Y-65913062D01*
X105750229Y-65944172D01*
X105689591Y-65946819D01*
X105634960Y-65920370D01*
X105599427Y-65871162D01*
X105591504Y-65810985D01*
X105613089Y-65754261D01*
X105697534Y-65633662D01*
X105790894Y-65433450D01*
X105848070Y-65220068D01*
X105867323Y-65000000D01*
X105848070Y-64779932D01*
X105790894Y-64566550D01*
X105782223Y-64547956D01*
X105699942Y-64371504D01*
X105697534Y-64366339D01*
X105570826Y-64185380D01*
X105414620Y-64029174D01*
X105312776Y-63957862D01*
X105238096Y-63905570D01*
X105238090Y-63905566D01*
X105233662Y-63902466D01*
X105228757Y-63900178D01*
X105228754Y-63900177D01*
X105097972Y-63839193D01*
X105033450Y-63809106D01*
X105028235Y-63807708D01*
X105028228Y-63807706D01*
X104825300Y-63753331D01*
X104825289Y-63753329D01*
X104820068Y-63751930D01*
X104814676Y-63751458D01*
X104814669Y-63751457D01*
X104605395Y-63733149D01*
X104600000Y-63732677D01*
X104594605Y-63733149D01*
X104385330Y-63751457D01*
X104385321Y-63751458D01*
X104379932Y-63751930D01*
X104374711Y-63753328D01*
X104374699Y-63753331D01*
X104171777Y-63807705D01*
X104171772Y-63807706D01*
X104166550Y-63809106D01*
X104161654Y-63811388D01*
X104161643Y-63811393D01*
X103971249Y-63900176D01*
X103971245Y-63900178D01*
X103966339Y-63902466D01*
X103961906Y-63905569D01*
X103961899Y-63905574D01*
X103789815Y-64026068D01*
X103789810Y-64026071D01*
X103785380Y-64029174D01*
X103781556Y-64032997D01*
X103781550Y-64033003D01*
X103633003Y-64181550D01*
X103632997Y-64181556D01*
X103629174Y-64185380D01*
X103626071Y-64189810D01*
X103626068Y-64189815D01*
X103505574Y-64361899D01*
X103505569Y-64361906D01*
X103502466Y-64366339D01*
X103500178Y-64371245D01*
X103500176Y-64371249D01*
X103442382Y-64495189D01*
X103396625Y-64547365D01*
X103330000Y-64566784D01*
X103263375Y-64547365D01*
X103217618Y-64495189D01*
X103159942Y-64371504D01*
X103157534Y-64366339D01*
X103030826Y-64185380D01*
X102874620Y-64029174D01*
X102772776Y-63957862D01*
X102698096Y-63905570D01*
X102698090Y-63905566D01*
X102693662Y-63902466D01*
X102688757Y-63900178D01*
X102688754Y-63900177D01*
X102557972Y-63839193D01*
X102493450Y-63809106D01*
X102488235Y-63807708D01*
X102488228Y-63807706D01*
X102285300Y-63753331D01*
X102285289Y-63753329D01*
X102280068Y-63751930D01*
X102274676Y-63751458D01*
X102274669Y-63751457D01*
X102065395Y-63733149D01*
X102060000Y-63732677D01*
X102054605Y-63733149D01*
X101845330Y-63751457D01*
X101845321Y-63751458D01*
X101839932Y-63751930D01*
X101834711Y-63753328D01*
X101834699Y-63753331D01*
X101631777Y-63807705D01*
X101631772Y-63807706D01*
X101626550Y-63809106D01*
X101621654Y-63811388D01*
X101621643Y-63811393D01*
X101431249Y-63900176D01*
X101431245Y-63900178D01*
X101426339Y-63902466D01*
X101421906Y-63905569D01*
X101421899Y-63905574D01*
X101249815Y-64026068D01*
X101249810Y-64026071D01*
X101245380Y-64029174D01*
X101241556Y-64032997D01*
X101241550Y-64033003D01*
X101093003Y-64181550D01*
X101092997Y-64181556D01*
X101089174Y-64185380D01*
X101086071Y-64189810D01*
X101086068Y-64189815D01*
X100965574Y-64361899D01*
X100965569Y-64361906D01*
X100962466Y-64366339D01*
X100960178Y-64371245D01*
X100960176Y-64371249D01*
X100902382Y-64495189D01*
X100856625Y-64547365D01*
X100790000Y-64566784D01*
X100723375Y-64547365D01*
X100677618Y-64495189D01*
X100619942Y-64371504D01*
X100617534Y-64366339D01*
X100490826Y-64185380D01*
X100334620Y-64029174D01*
X100232776Y-63957862D01*
X100158096Y-63905570D01*
X100158090Y-63905566D01*
X100153662Y-63902466D01*
X100148757Y-63900178D01*
X100148754Y-63900177D01*
X100017972Y-63839193D01*
X99953450Y-63809106D01*
X99948235Y-63807708D01*
X99948228Y-63807706D01*
X99745300Y-63753331D01*
X99745289Y-63753329D01*
X99740068Y-63751930D01*
X99734676Y-63751458D01*
X99734669Y-63751457D01*
X99525395Y-63733149D01*
X99520000Y-63732677D01*
X99514605Y-63733149D01*
X99305330Y-63751457D01*
X99305321Y-63751458D01*
X99299932Y-63751930D01*
X99294711Y-63753328D01*
X99294699Y-63753331D01*
X99091777Y-63807705D01*
X99091772Y-63807706D01*
X99086550Y-63809106D01*
X99081654Y-63811388D01*
X99081643Y-63811393D01*
X98891249Y-63900176D01*
X98891245Y-63900178D01*
X98886339Y-63902466D01*
X98881906Y-63905569D01*
X98881899Y-63905574D01*
X98709815Y-64026068D01*
X98709810Y-64026071D01*
X98705380Y-64029174D01*
X98701556Y-64032997D01*
X98701550Y-64033003D01*
X98553003Y-64181550D01*
X98552997Y-64181556D01*
X98549174Y-64185380D01*
X98546071Y-64189810D01*
X98546068Y-64189815D01*
X98425574Y-64361899D01*
X98425569Y-64361906D01*
X98422466Y-64366339D01*
X98420179Y-64371242D01*
X98420178Y-64371245D01*
X98362105Y-64495782D01*
X98316347Y-64547957D01*
X98249722Y-64567376D01*
X98183097Y-64547956D01*
X98137341Y-64495780D01*
X98079391Y-64371504D01*
X98073990Y-64362150D01*
X98039529Y-64312935D01*
X98031418Y-64305502D01*
X98022139Y-64311413D01*
X97345095Y-64988457D01*
X97338431Y-65000000D01*
X97345095Y-65011542D01*
X98022136Y-65688582D01*
X98031419Y-65694496D01*
X98039528Y-65687064D01*
X98073989Y-65637851D01*
X98079388Y-65628499D01*
X98137340Y-65504219D01*
X98183097Y-65452042D01*
X98249722Y-65432622D01*
X98316348Y-65452041D01*
X98362105Y-65504217D01*
X98378331Y-65539015D01*
X98422466Y-65633662D01*
X98425566Y-65638090D01*
X98425570Y-65638096D01*
X98506907Y-65754257D01*
X98549174Y-65814620D01*
X98705380Y-65970826D01*
X98722618Y-65982896D01*
X98881903Y-66094429D01*
X98881906Y-66094430D01*
X98886338Y-66097534D01*
X99086550Y-66190894D01*
X99091770Y-66192292D01*
X99091771Y-66192293D01*
X99294699Y-66246668D01*
X99294701Y-66246668D01*
X99299932Y-66248070D01*
X99520000Y-66267323D01*
X99740068Y-66248070D01*
X99953450Y-66190894D01*
X100153662Y-66097534D01*
X100334620Y-65970826D01*
X100490826Y-65814620D01*
X100617534Y-65633662D01*
X100677618Y-65504808D01*
X100723375Y-65452634D01*
X100790000Y-65433214D01*
X100856625Y-65452634D01*
X100902381Y-65504808D01*
X100932948Y-65570361D01*
X100956531Y-65620936D01*
X100962466Y-65633662D01*
X100965566Y-65638090D01*
X100965570Y-65638096D01*
X101046907Y-65754257D01*
X101089174Y-65814620D01*
X101245380Y-65970826D01*
X101262618Y-65982896D01*
X101421903Y-66094429D01*
X101421906Y-66094430D01*
X101426338Y-66097534D01*
X101626550Y-66190894D01*
X101631770Y-66192292D01*
X101631771Y-66192293D01*
X101834699Y-66246668D01*
X101834701Y-66246668D01*
X101839932Y-66248070D01*
X102060000Y-66267323D01*
X102280068Y-66248070D01*
X102493450Y-66190894D01*
X102693662Y-66097534D01*
X102874620Y-65970826D01*
X103030826Y-65814620D01*
X103157534Y-65633662D01*
X103217618Y-65504808D01*
X103263375Y-65452634D01*
X103330000Y-65433214D01*
X103396625Y-65452634D01*
X103442381Y-65504808D01*
X103472948Y-65570361D01*
X103496531Y-65620936D01*
X103502466Y-65633662D01*
X103505566Y-65638090D01*
X103505570Y-65638096D01*
X103586907Y-65754257D01*
X103629174Y-65814620D01*
X103785380Y-65970826D01*
X103802618Y-65982896D01*
X103961903Y-66094429D01*
X103961906Y-66094430D01*
X103966338Y-66097534D01*
X104166550Y-66190894D01*
X104171770Y-66192292D01*
X104171771Y-66192293D01*
X104374699Y-66246668D01*
X104374701Y-66246668D01*
X104379932Y-66248070D01*
X104600000Y-66267323D01*
X104820068Y-66248070D01*
X105033450Y-66190894D01*
X105233662Y-66097534D01*
X105354259Y-66013090D01*
X105410984Y-65991505D01*
X105471161Y-65999427D01*
X105520369Y-66034960D01*
X105546818Y-66089591D01*
X105544171Y-66150229D01*
X105513061Y-66202347D01*
X98237228Y-73478181D01*
X98197000Y-73505061D01*
X98149547Y-73514500D01*
X39475226Y-73514500D01*
X39417969Y-73500489D01*
X39373651Y-73461623D01*
X39241600Y-73273034D01*
X39238495Y-73268599D01*
X39116569Y-73146673D01*
X39085273Y-73093927D01*
X39083084Y-73032634D01*
X39110537Y-72977789D01*
X39160916Y-72942810D01*
X39292331Y-72893796D01*
X39407546Y-72807546D01*
X39493796Y-72692331D01*
X39544091Y-72557483D01*
X39550500Y-72497873D01*
X39550500Y-72349500D01*
X39567113Y-72287500D01*
X39612500Y-72242113D01*
X39674500Y-72225500D01*
X48722225Y-72225500D01*
X48733280Y-72226021D01*
X48740667Y-72227673D01*
X48807872Y-72225561D01*
X48811768Y-72225500D01*
X48835448Y-72225500D01*
X48839350Y-72225500D01*
X48843313Y-72224999D01*
X48854963Y-72224080D01*
X48898627Y-72222709D01*
X48917861Y-72217119D01*
X48936917Y-72213174D01*
X48956792Y-72210664D01*
X48997395Y-72194587D01*
X49008450Y-72190802D01*
X49050390Y-72178618D01*
X49067629Y-72168422D01*
X49085103Y-72159862D01*
X49096474Y-72155360D01*
X49096476Y-72155358D01*
X49103732Y-72152486D01*
X49139069Y-72126811D01*
X49148824Y-72120403D01*
X49186420Y-72098170D01*
X49200584Y-72084005D01*
X49215379Y-72071368D01*
X49231587Y-72059594D01*
X49259428Y-72025938D01*
X49267279Y-72017309D01*
X56284589Y-65000000D01*
X72852677Y-65000000D01*
X72853149Y-65005395D01*
X72871457Y-65214669D01*
X72871458Y-65214676D01*
X72871930Y-65220068D01*
X72873329Y-65225289D01*
X72873331Y-65225300D01*
X72927706Y-65428228D01*
X72927708Y-65428235D01*
X72929106Y-65433450D01*
X72931392Y-65438352D01*
X73016531Y-65620936D01*
X73022466Y-65633662D01*
X73025566Y-65638090D01*
X73025570Y-65638096D01*
X73106907Y-65754257D01*
X73149174Y-65814620D01*
X73305380Y-65970826D01*
X73322618Y-65982896D01*
X73481903Y-66094429D01*
X73481906Y-66094430D01*
X73486338Y-66097534D01*
X73686550Y-66190894D01*
X73691770Y-66192292D01*
X73691771Y-66192293D01*
X73894699Y-66246668D01*
X73894701Y-66246668D01*
X73899932Y-66248070D01*
X74120000Y-66267323D01*
X74340068Y-66248070D01*
X74553450Y-66190894D01*
X74753662Y-66097534D01*
X74934620Y-65970826D01*
X75090826Y-65814620D01*
X75217534Y-65633662D01*
X75277618Y-65504808D01*
X75323375Y-65452634D01*
X75390000Y-65433214D01*
X75456625Y-65452634D01*
X75502381Y-65504808D01*
X75532948Y-65570361D01*
X75556531Y-65620936D01*
X75562466Y-65633662D01*
X75565566Y-65638090D01*
X75565570Y-65638096D01*
X75646907Y-65754257D01*
X75689174Y-65814620D01*
X75845380Y-65970826D01*
X75862618Y-65982896D01*
X76021903Y-66094429D01*
X76021906Y-66094430D01*
X76026338Y-66097534D01*
X76226550Y-66190894D01*
X76231770Y-66192292D01*
X76231771Y-66192293D01*
X76434699Y-66246668D01*
X76434701Y-66246668D01*
X76439932Y-66248070D01*
X76660000Y-66267323D01*
X76880068Y-66248070D01*
X77093450Y-66190894D01*
X77293662Y-66097534D01*
X77474620Y-65970826D01*
X77630826Y-65814620D01*
X77757534Y-65633662D01*
X77817618Y-65504808D01*
X77863375Y-65452634D01*
X77930000Y-65433214D01*
X77996625Y-65452634D01*
X78042381Y-65504808D01*
X78072948Y-65570361D01*
X78096531Y-65620936D01*
X78102466Y-65633662D01*
X78105566Y-65638090D01*
X78105570Y-65638096D01*
X78186907Y-65754257D01*
X78229174Y-65814620D01*
X78385380Y-65970826D01*
X78402618Y-65982896D01*
X78561903Y-66094429D01*
X78561906Y-66094430D01*
X78566338Y-66097534D01*
X78766550Y-66190894D01*
X78771770Y-66192292D01*
X78771771Y-66192293D01*
X78974699Y-66246668D01*
X78974701Y-66246668D01*
X78979932Y-66248070D01*
X79200000Y-66267323D01*
X79420068Y-66248070D01*
X79633450Y-66190894D01*
X79833662Y-66097534D01*
X80014620Y-65970826D01*
X80170826Y-65814620D01*
X80297534Y-65633662D01*
X80357618Y-65504808D01*
X80403375Y-65452634D01*
X80470000Y-65433214D01*
X80536625Y-65452634D01*
X80582381Y-65504808D01*
X80612948Y-65570361D01*
X80636531Y-65620936D01*
X80642466Y-65633662D01*
X80645566Y-65638090D01*
X80645570Y-65638096D01*
X80726907Y-65754257D01*
X80769174Y-65814620D01*
X80925380Y-65970826D01*
X80942618Y-65982896D01*
X81101903Y-66094429D01*
X81101906Y-66094430D01*
X81106338Y-66097534D01*
X81306550Y-66190894D01*
X81311770Y-66192292D01*
X81311771Y-66192293D01*
X81514699Y-66246668D01*
X81514701Y-66246668D01*
X81519932Y-66248070D01*
X81740000Y-66267323D01*
X81960068Y-66248070D01*
X82173450Y-66190894D01*
X82373662Y-66097534D01*
X82554620Y-65970826D01*
X82710826Y-65814620D01*
X82837534Y-65633662D01*
X82897618Y-65504808D01*
X82943375Y-65452634D01*
X83010000Y-65433214D01*
X83076625Y-65452634D01*
X83122381Y-65504808D01*
X83152948Y-65570361D01*
X83176531Y-65620936D01*
X83182466Y-65633662D01*
X83185566Y-65638090D01*
X83185570Y-65638096D01*
X83266907Y-65754257D01*
X83309174Y-65814620D01*
X83465380Y-65970826D01*
X83482618Y-65982896D01*
X83641903Y-66094429D01*
X83641906Y-66094430D01*
X83646338Y-66097534D01*
X83846550Y-66190894D01*
X83851770Y-66192292D01*
X83851771Y-66192293D01*
X84054699Y-66246668D01*
X84054701Y-66246668D01*
X84059932Y-66248070D01*
X84280000Y-66267323D01*
X84500068Y-66248070D01*
X84713450Y-66190894D01*
X84913662Y-66097534D01*
X85094620Y-65970826D01*
X85250826Y-65814620D01*
X85377534Y-65633662D01*
X85437618Y-65504808D01*
X85483375Y-65452634D01*
X85550000Y-65433214D01*
X85616625Y-65452634D01*
X85662381Y-65504808D01*
X85692948Y-65570361D01*
X85716531Y-65620936D01*
X85722466Y-65633662D01*
X85725566Y-65638090D01*
X85725570Y-65638096D01*
X85806907Y-65754257D01*
X85849174Y-65814620D01*
X86005380Y-65970826D01*
X86022618Y-65982896D01*
X86181903Y-66094429D01*
X86181906Y-66094430D01*
X86186338Y-66097534D01*
X86386550Y-66190894D01*
X86391770Y-66192292D01*
X86391771Y-66192293D01*
X86594699Y-66246668D01*
X86594701Y-66246668D01*
X86599932Y-66248070D01*
X86820000Y-66267323D01*
X87040068Y-66248070D01*
X87253450Y-66190894D01*
X87453662Y-66097534D01*
X87634620Y-65970826D01*
X87790826Y-65814620D01*
X87917534Y-65633662D01*
X87977618Y-65504808D01*
X88023375Y-65452634D01*
X88090000Y-65433214D01*
X88156625Y-65452634D01*
X88202381Y-65504808D01*
X88232948Y-65570361D01*
X88256531Y-65620936D01*
X88262466Y-65633662D01*
X88265566Y-65638090D01*
X88265570Y-65638096D01*
X88346907Y-65754257D01*
X88389174Y-65814620D01*
X88545380Y-65970826D01*
X88562618Y-65982896D01*
X88721903Y-66094429D01*
X88721906Y-66094430D01*
X88726338Y-66097534D01*
X88926550Y-66190894D01*
X88931770Y-66192292D01*
X88931771Y-66192293D01*
X89134699Y-66246668D01*
X89134701Y-66246668D01*
X89139932Y-66248070D01*
X89360000Y-66267323D01*
X89580068Y-66248070D01*
X89793450Y-66190894D01*
X89993662Y-66097534D01*
X90174620Y-65970826D01*
X90330826Y-65814620D01*
X90457534Y-65633662D01*
X90517618Y-65504808D01*
X90563375Y-65452634D01*
X90630000Y-65433214D01*
X90696625Y-65452634D01*
X90742381Y-65504808D01*
X90772948Y-65570361D01*
X90796531Y-65620936D01*
X90802466Y-65633662D01*
X90805566Y-65638090D01*
X90805570Y-65638096D01*
X90886907Y-65754257D01*
X90929174Y-65814620D01*
X91085380Y-65970826D01*
X91102618Y-65982896D01*
X91261903Y-66094429D01*
X91261906Y-66094430D01*
X91266338Y-66097534D01*
X91466550Y-66190894D01*
X91471770Y-66192292D01*
X91471771Y-66192293D01*
X91674699Y-66246668D01*
X91674701Y-66246668D01*
X91679932Y-66248070D01*
X91900000Y-66267323D01*
X92120068Y-66248070D01*
X92333450Y-66190894D01*
X92533662Y-66097534D01*
X92714620Y-65970826D01*
X92870826Y-65814620D01*
X92997534Y-65633662D01*
X93057618Y-65504808D01*
X93103375Y-65452634D01*
X93170000Y-65433214D01*
X93236625Y-65452634D01*
X93282381Y-65504808D01*
X93312948Y-65570361D01*
X93336531Y-65620936D01*
X93342466Y-65633662D01*
X93345566Y-65638090D01*
X93345570Y-65638096D01*
X93426907Y-65754257D01*
X93469174Y-65814620D01*
X93625380Y-65970826D01*
X93642618Y-65982896D01*
X93801903Y-66094429D01*
X93801906Y-66094430D01*
X93806338Y-66097534D01*
X94006550Y-66190894D01*
X94011770Y-66192292D01*
X94011771Y-66192293D01*
X94214699Y-66246668D01*
X94214701Y-66246668D01*
X94219932Y-66248070D01*
X94440000Y-66267323D01*
X94660068Y-66248070D01*
X94873450Y-66190894D01*
X95073662Y-66097534D01*
X95139523Y-66051418D01*
X96285503Y-66051418D01*
X96292936Y-66059530D01*
X96342151Y-66093991D01*
X96351499Y-66099388D01*
X96541819Y-66188135D01*
X96551943Y-66191821D01*
X96754786Y-66246173D01*
X96765418Y-66248047D01*
X96974605Y-66266349D01*
X96985395Y-66266349D01*
X97194581Y-66248047D01*
X97205213Y-66246173D01*
X97408056Y-66191821D01*
X97418180Y-66188135D01*
X97608494Y-66099391D01*
X97617851Y-66093989D01*
X97667064Y-66059528D01*
X97674496Y-66051419D01*
X97668582Y-66042136D01*
X96991542Y-65365095D01*
X96980000Y-65358431D01*
X96968457Y-65365095D01*
X96291416Y-66042136D01*
X96285503Y-66051418D01*
X95139523Y-66051418D01*
X95254620Y-65970826D01*
X95410826Y-65814620D01*
X95537534Y-65633662D01*
X95597895Y-65504216D01*
X95643651Y-65452042D01*
X95710276Y-65432622D01*
X95776901Y-65452042D01*
X95822658Y-65504218D01*
X95880609Y-65628496D01*
X95886008Y-65637848D01*
X95920470Y-65687065D01*
X95928579Y-65694496D01*
X95937862Y-65688582D01*
X96614903Y-65011542D01*
X96621567Y-64999999D01*
X96614903Y-64988457D01*
X95937859Y-64311413D01*
X95928581Y-64305502D01*
X95920468Y-64312936D01*
X95886006Y-64362154D01*
X95880612Y-64371498D01*
X95822658Y-64495781D01*
X95776901Y-64547957D01*
X95710276Y-64567376D01*
X95643651Y-64547957D01*
X95597894Y-64495781D01*
X95539942Y-64371504D01*
X95537534Y-64366339D01*
X95410826Y-64185380D01*
X95254620Y-64029174D01*
X95152776Y-63957862D01*
X95139521Y-63948581D01*
X96285502Y-63948581D01*
X96291413Y-63957859D01*
X96968457Y-64634903D01*
X96979999Y-64641567D01*
X96991542Y-64634903D01*
X97668582Y-63957862D01*
X97674496Y-63948579D01*
X97667065Y-63940470D01*
X97617848Y-63906008D01*
X97608496Y-63900609D01*
X97418180Y-63811864D01*
X97408056Y-63808178D01*
X97205213Y-63753826D01*
X97194581Y-63751952D01*
X96985395Y-63733651D01*
X96974605Y-63733651D01*
X96765418Y-63751952D01*
X96754786Y-63753826D01*
X96551949Y-63808177D01*
X96541815Y-63811865D01*
X96351498Y-63900612D01*
X96342154Y-63906006D01*
X96292936Y-63940468D01*
X96285502Y-63948581D01*
X95139521Y-63948581D01*
X95078096Y-63905570D01*
X95078090Y-63905566D01*
X95073662Y-63902466D01*
X95068757Y-63900178D01*
X95068754Y-63900177D01*
X94937972Y-63839193D01*
X94873450Y-63809106D01*
X94868235Y-63807708D01*
X94868228Y-63807706D01*
X94665300Y-63753331D01*
X94665289Y-63753329D01*
X94660068Y-63751930D01*
X94654676Y-63751458D01*
X94654669Y-63751457D01*
X94445395Y-63733149D01*
X94440000Y-63732677D01*
X94434605Y-63733149D01*
X94225330Y-63751457D01*
X94225321Y-63751458D01*
X94219932Y-63751930D01*
X94214711Y-63753328D01*
X94214699Y-63753331D01*
X94011777Y-63807705D01*
X94011772Y-63807706D01*
X94006550Y-63809106D01*
X94001654Y-63811388D01*
X94001643Y-63811393D01*
X93811249Y-63900176D01*
X93811245Y-63900178D01*
X93806339Y-63902466D01*
X93801906Y-63905569D01*
X93801899Y-63905574D01*
X93629815Y-64026068D01*
X93629810Y-64026071D01*
X93625380Y-64029174D01*
X93621556Y-64032997D01*
X93621550Y-64033003D01*
X93473003Y-64181550D01*
X93472997Y-64181556D01*
X93469174Y-64185380D01*
X93466071Y-64189810D01*
X93466068Y-64189815D01*
X93345574Y-64361899D01*
X93345569Y-64361906D01*
X93342466Y-64366339D01*
X93340178Y-64371245D01*
X93340176Y-64371249D01*
X93282382Y-64495189D01*
X93236625Y-64547365D01*
X93170000Y-64566784D01*
X93103375Y-64547365D01*
X93057618Y-64495189D01*
X92999942Y-64371504D01*
X92997534Y-64366339D01*
X92870826Y-64185380D01*
X92714620Y-64029174D01*
X92612776Y-63957862D01*
X92538096Y-63905570D01*
X92538090Y-63905566D01*
X92533662Y-63902466D01*
X92528757Y-63900178D01*
X92528754Y-63900177D01*
X92397972Y-63839193D01*
X92333450Y-63809106D01*
X92328235Y-63807708D01*
X92328228Y-63807706D01*
X92125300Y-63753331D01*
X92125289Y-63753329D01*
X92120068Y-63751930D01*
X92114676Y-63751458D01*
X92114669Y-63751457D01*
X91905395Y-63733149D01*
X91900000Y-63732677D01*
X91894605Y-63733149D01*
X91685330Y-63751457D01*
X91685321Y-63751458D01*
X91679932Y-63751930D01*
X91674711Y-63753328D01*
X91674699Y-63753331D01*
X91471777Y-63807705D01*
X91471772Y-63807706D01*
X91466550Y-63809106D01*
X91461654Y-63811388D01*
X91461643Y-63811393D01*
X91271249Y-63900176D01*
X91271245Y-63900178D01*
X91266339Y-63902466D01*
X91261906Y-63905569D01*
X91261899Y-63905574D01*
X91089815Y-64026068D01*
X91089810Y-64026071D01*
X91085380Y-64029174D01*
X91081556Y-64032997D01*
X91081550Y-64033003D01*
X90933003Y-64181550D01*
X90932997Y-64181556D01*
X90929174Y-64185380D01*
X90926071Y-64189810D01*
X90926068Y-64189815D01*
X90805574Y-64361899D01*
X90805569Y-64361906D01*
X90802466Y-64366339D01*
X90800178Y-64371245D01*
X90800176Y-64371249D01*
X90742382Y-64495189D01*
X90696625Y-64547365D01*
X90630000Y-64566784D01*
X90563375Y-64547365D01*
X90517618Y-64495189D01*
X90459942Y-64371504D01*
X90457534Y-64366339D01*
X90330826Y-64185380D01*
X90174620Y-64029174D01*
X90072776Y-63957862D01*
X89998096Y-63905570D01*
X89998090Y-63905566D01*
X89993662Y-63902466D01*
X89988757Y-63900178D01*
X89988754Y-63900177D01*
X89857972Y-63839193D01*
X89793450Y-63809106D01*
X89788235Y-63807708D01*
X89788228Y-63807706D01*
X89585300Y-63753331D01*
X89585289Y-63753329D01*
X89580068Y-63751930D01*
X89574676Y-63751458D01*
X89574669Y-63751457D01*
X89365395Y-63733149D01*
X89360000Y-63732677D01*
X89354605Y-63733149D01*
X89145330Y-63751457D01*
X89145321Y-63751458D01*
X89139932Y-63751930D01*
X89134711Y-63753328D01*
X89134699Y-63753331D01*
X88931777Y-63807705D01*
X88931772Y-63807706D01*
X88926550Y-63809106D01*
X88921654Y-63811388D01*
X88921643Y-63811393D01*
X88731249Y-63900176D01*
X88731245Y-63900178D01*
X88726339Y-63902466D01*
X88721906Y-63905569D01*
X88721899Y-63905574D01*
X88549815Y-64026068D01*
X88549810Y-64026071D01*
X88545380Y-64029174D01*
X88541556Y-64032997D01*
X88541550Y-64033003D01*
X88393003Y-64181550D01*
X88392997Y-64181556D01*
X88389174Y-64185380D01*
X88386071Y-64189810D01*
X88386068Y-64189815D01*
X88265574Y-64361899D01*
X88265569Y-64361906D01*
X88262466Y-64366339D01*
X88260178Y-64371245D01*
X88260176Y-64371249D01*
X88202382Y-64495189D01*
X88156625Y-64547365D01*
X88090000Y-64566784D01*
X88023375Y-64547365D01*
X87977618Y-64495189D01*
X87919942Y-64371504D01*
X87917534Y-64366339D01*
X87790826Y-64185380D01*
X87634620Y-64029174D01*
X87532776Y-63957862D01*
X87458096Y-63905570D01*
X87458090Y-63905566D01*
X87453662Y-63902466D01*
X87448757Y-63900178D01*
X87448754Y-63900177D01*
X87317972Y-63839193D01*
X87253450Y-63809106D01*
X87248235Y-63807708D01*
X87248228Y-63807706D01*
X87045300Y-63753331D01*
X87045289Y-63753329D01*
X87040068Y-63751930D01*
X87034676Y-63751458D01*
X87034669Y-63751457D01*
X86825395Y-63733149D01*
X86820000Y-63732677D01*
X86814605Y-63733149D01*
X86605330Y-63751457D01*
X86605321Y-63751458D01*
X86599932Y-63751930D01*
X86594711Y-63753328D01*
X86594699Y-63753331D01*
X86391777Y-63807705D01*
X86391772Y-63807706D01*
X86386550Y-63809106D01*
X86381654Y-63811388D01*
X86381643Y-63811393D01*
X86191249Y-63900176D01*
X86191245Y-63900178D01*
X86186339Y-63902466D01*
X86181906Y-63905569D01*
X86181899Y-63905574D01*
X86009815Y-64026068D01*
X86009810Y-64026071D01*
X86005380Y-64029174D01*
X86001556Y-64032997D01*
X86001550Y-64033003D01*
X85853003Y-64181550D01*
X85852997Y-64181556D01*
X85849174Y-64185380D01*
X85846071Y-64189810D01*
X85846068Y-64189815D01*
X85725574Y-64361899D01*
X85725569Y-64361906D01*
X85722466Y-64366339D01*
X85720178Y-64371245D01*
X85720176Y-64371249D01*
X85662382Y-64495189D01*
X85616625Y-64547365D01*
X85550000Y-64566784D01*
X85483375Y-64547365D01*
X85437618Y-64495189D01*
X85379942Y-64371504D01*
X85377534Y-64366339D01*
X85250826Y-64185380D01*
X85094620Y-64029174D01*
X84992776Y-63957862D01*
X84918096Y-63905570D01*
X84918090Y-63905566D01*
X84913662Y-63902466D01*
X84908757Y-63900178D01*
X84908754Y-63900177D01*
X84777972Y-63839193D01*
X84713450Y-63809106D01*
X84708235Y-63807708D01*
X84708228Y-63807706D01*
X84505300Y-63753331D01*
X84505289Y-63753329D01*
X84500068Y-63751930D01*
X84494676Y-63751458D01*
X84494669Y-63751457D01*
X84285395Y-63733149D01*
X84280000Y-63732677D01*
X84274605Y-63733149D01*
X84065330Y-63751457D01*
X84065321Y-63751458D01*
X84059932Y-63751930D01*
X84054711Y-63753328D01*
X84054699Y-63753331D01*
X83851777Y-63807705D01*
X83851772Y-63807706D01*
X83846550Y-63809106D01*
X83841654Y-63811388D01*
X83841643Y-63811393D01*
X83651249Y-63900176D01*
X83651245Y-63900178D01*
X83646339Y-63902466D01*
X83641906Y-63905569D01*
X83641899Y-63905574D01*
X83469815Y-64026068D01*
X83469810Y-64026071D01*
X83465380Y-64029174D01*
X83461556Y-64032997D01*
X83461550Y-64033003D01*
X83313003Y-64181550D01*
X83312997Y-64181556D01*
X83309174Y-64185380D01*
X83306071Y-64189810D01*
X83306068Y-64189815D01*
X83185574Y-64361899D01*
X83185569Y-64361906D01*
X83182466Y-64366339D01*
X83180178Y-64371245D01*
X83180176Y-64371249D01*
X83122382Y-64495189D01*
X83076625Y-64547365D01*
X83010000Y-64566784D01*
X82943375Y-64547365D01*
X82897618Y-64495189D01*
X82839942Y-64371504D01*
X82837534Y-64366339D01*
X82710826Y-64185380D01*
X82554620Y-64029174D01*
X82452776Y-63957862D01*
X82378096Y-63905570D01*
X82378090Y-63905566D01*
X82373662Y-63902466D01*
X82368757Y-63900178D01*
X82368754Y-63900177D01*
X82237972Y-63839193D01*
X82173450Y-63809106D01*
X82168235Y-63807708D01*
X82168228Y-63807706D01*
X81965300Y-63753331D01*
X81965289Y-63753329D01*
X81960068Y-63751930D01*
X81954676Y-63751458D01*
X81954669Y-63751457D01*
X81745395Y-63733149D01*
X81740000Y-63732677D01*
X81734605Y-63733149D01*
X81525330Y-63751457D01*
X81525321Y-63751458D01*
X81519932Y-63751930D01*
X81514711Y-63753328D01*
X81514699Y-63753331D01*
X81311777Y-63807705D01*
X81311772Y-63807706D01*
X81306550Y-63809106D01*
X81301654Y-63811388D01*
X81301643Y-63811393D01*
X81111249Y-63900176D01*
X81111245Y-63900178D01*
X81106339Y-63902466D01*
X81101906Y-63905569D01*
X81101899Y-63905574D01*
X80929815Y-64026068D01*
X80929810Y-64026071D01*
X80925380Y-64029174D01*
X80921556Y-64032997D01*
X80921550Y-64033003D01*
X80773003Y-64181550D01*
X80772997Y-64181556D01*
X80769174Y-64185380D01*
X80766071Y-64189810D01*
X80766068Y-64189815D01*
X80645574Y-64361899D01*
X80645569Y-64361906D01*
X80642466Y-64366339D01*
X80640178Y-64371245D01*
X80640176Y-64371249D01*
X80582382Y-64495189D01*
X80536625Y-64547365D01*
X80470000Y-64566784D01*
X80403375Y-64547365D01*
X80357618Y-64495189D01*
X80299942Y-64371504D01*
X80297534Y-64366339D01*
X80170826Y-64185380D01*
X80014620Y-64029174D01*
X79912776Y-63957862D01*
X79838096Y-63905570D01*
X79838090Y-63905566D01*
X79833662Y-63902466D01*
X79828757Y-63900178D01*
X79828754Y-63900177D01*
X79697972Y-63839193D01*
X79633450Y-63809106D01*
X79628235Y-63807708D01*
X79628228Y-63807706D01*
X79425300Y-63753331D01*
X79425289Y-63753329D01*
X79420068Y-63751930D01*
X79414676Y-63751458D01*
X79414669Y-63751457D01*
X79205395Y-63733149D01*
X79200000Y-63732677D01*
X79194605Y-63733149D01*
X78985330Y-63751457D01*
X78985321Y-63751458D01*
X78979932Y-63751930D01*
X78974711Y-63753328D01*
X78974699Y-63753331D01*
X78771777Y-63807705D01*
X78771772Y-63807706D01*
X78766550Y-63809106D01*
X78761654Y-63811388D01*
X78761643Y-63811393D01*
X78571249Y-63900176D01*
X78571245Y-63900178D01*
X78566339Y-63902466D01*
X78561906Y-63905569D01*
X78561899Y-63905574D01*
X78389815Y-64026068D01*
X78389810Y-64026071D01*
X78385380Y-64029174D01*
X78381556Y-64032997D01*
X78381550Y-64033003D01*
X78233003Y-64181550D01*
X78232997Y-64181556D01*
X78229174Y-64185380D01*
X78226071Y-64189810D01*
X78226068Y-64189815D01*
X78105574Y-64361899D01*
X78105569Y-64361906D01*
X78102466Y-64366339D01*
X78100178Y-64371245D01*
X78100176Y-64371249D01*
X78042382Y-64495189D01*
X77996625Y-64547365D01*
X77930000Y-64566784D01*
X77863375Y-64547365D01*
X77817618Y-64495189D01*
X77759942Y-64371504D01*
X77757534Y-64366339D01*
X77630826Y-64185380D01*
X77474620Y-64029174D01*
X77372776Y-63957862D01*
X77298096Y-63905570D01*
X77298090Y-63905566D01*
X77293662Y-63902466D01*
X77288757Y-63900178D01*
X77288754Y-63900177D01*
X77157972Y-63839193D01*
X77093450Y-63809106D01*
X77088235Y-63807708D01*
X77088228Y-63807706D01*
X76885300Y-63753331D01*
X76885289Y-63753329D01*
X76880068Y-63751930D01*
X76874676Y-63751458D01*
X76874669Y-63751457D01*
X76665395Y-63733149D01*
X76660000Y-63732677D01*
X76654605Y-63733149D01*
X76445330Y-63751457D01*
X76445321Y-63751458D01*
X76439932Y-63751930D01*
X76434711Y-63753328D01*
X76434699Y-63753331D01*
X76231777Y-63807705D01*
X76231772Y-63807706D01*
X76226550Y-63809106D01*
X76221654Y-63811388D01*
X76221643Y-63811393D01*
X76031249Y-63900176D01*
X76031245Y-63900178D01*
X76026339Y-63902466D01*
X76021906Y-63905569D01*
X76021899Y-63905574D01*
X75849815Y-64026068D01*
X75849810Y-64026071D01*
X75845380Y-64029174D01*
X75841556Y-64032997D01*
X75841550Y-64033003D01*
X75693003Y-64181550D01*
X75692997Y-64181556D01*
X75689174Y-64185380D01*
X75686071Y-64189810D01*
X75686068Y-64189815D01*
X75565574Y-64361899D01*
X75565569Y-64361906D01*
X75562466Y-64366339D01*
X75560178Y-64371245D01*
X75560176Y-64371249D01*
X75502382Y-64495189D01*
X75456625Y-64547365D01*
X75390000Y-64566784D01*
X75323375Y-64547365D01*
X75277618Y-64495189D01*
X75219942Y-64371504D01*
X75217534Y-64366339D01*
X75090826Y-64185380D01*
X74934620Y-64029174D01*
X74832776Y-63957862D01*
X74758096Y-63905570D01*
X74758090Y-63905566D01*
X74753662Y-63902466D01*
X74748757Y-63900178D01*
X74748754Y-63900177D01*
X74617972Y-63839193D01*
X74553450Y-63809106D01*
X74548235Y-63807708D01*
X74548228Y-63807706D01*
X74345300Y-63753331D01*
X74345289Y-63753329D01*
X74340068Y-63751930D01*
X74334676Y-63751458D01*
X74334669Y-63751457D01*
X74125395Y-63733149D01*
X74120000Y-63732677D01*
X74114605Y-63733149D01*
X73905330Y-63751457D01*
X73905321Y-63751458D01*
X73899932Y-63751930D01*
X73894711Y-63753328D01*
X73894699Y-63753331D01*
X73691777Y-63807705D01*
X73691772Y-63807706D01*
X73686550Y-63809106D01*
X73681654Y-63811388D01*
X73681643Y-63811393D01*
X73491249Y-63900176D01*
X73491245Y-63900178D01*
X73486339Y-63902466D01*
X73481906Y-63905569D01*
X73481899Y-63905574D01*
X73309815Y-64026068D01*
X73309810Y-64026071D01*
X73305380Y-64029174D01*
X73301556Y-64032997D01*
X73301550Y-64033003D01*
X73153003Y-64181550D01*
X73152997Y-64181556D01*
X73149174Y-64185380D01*
X73146071Y-64189810D01*
X73146068Y-64189815D01*
X73025574Y-64361899D01*
X73025569Y-64361906D01*
X73022466Y-64366339D01*
X73020178Y-64371245D01*
X73020176Y-64371249D01*
X72931393Y-64561643D01*
X72931388Y-64561654D01*
X72929106Y-64566550D01*
X72927706Y-64571772D01*
X72927705Y-64571777D01*
X72873331Y-64774699D01*
X72873328Y-64774711D01*
X72871930Y-64779932D01*
X72871458Y-64785321D01*
X72871457Y-64785330D01*
X72853687Y-64988457D01*
X72852677Y-65000000D01*
X56284589Y-65000000D01*
X61967310Y-59317279D01*
X61975481Y-59309844D01*
X61981877Y-59305786D01*
X61986631Y-59300722D01*
X62033134Y-59276724D01*
X62038430Y-59275305D01*
X62043663Y-59273903D01*
X62257830Y-59174035D01*
X62451401Y-59038495D01*
X62618495Y-58871401D01*
X62748426Y-58685839D01*
X62792742Y-58646976D01*
X62849999Y-58632965D01*
X62907256Y-58646976D01*
X62951574Y-58685841D01*
X63078399Y-58866966D01*
X63078402Y-58866970D01*
X63081505Y-58871401D01*
X63248599Y-59038495D01*
X63253031Y-59041598D01*
X63253033Y-59041600D01*
X63397260Y-59142589D01*
X63442170Y-59174035D01*
X63656337Y-59273903D01*
X63884592Y-59335063D01*
X64120000Y-59355659D01*
X64355408Y-59335063D01*
X64583663Y-59273903D01*
X64797830Y-59174035D01*
X64991401Y-59038495D01*
X65158495Y-58871401D01*
X65288426Y-58685839D01*
X65332742Y-58646976D01*
X65389999Y-58632965D01*
X65447256Y-58646976D01*
X65491574Y-58685841D01*
X65618399Y-58866966D01*
X65618402Y-58866970D01*
X65621505Y-58871401D01*
X65788599Y-59038495D01*
X65793031Y-59041598D01*
X65793033Y-59041600D01*
X65937260Y-59142589D01*
X65982170Y-59174035D01*
X66196337Y-59273903D01*
X66424592Y-59335063D01*
X66660000Y-59355659D01*
X66895408Y-59335063D01*
X67123663Y-59273903D01*
X67337830Y-59174035D01*
X67531401Y-59038495D01*
X67698495Y-58871401D01*
X67828426Y-58685841D01*
X67872743Y-58646976D01*
X67930000Y-58632965D01*
X67987257Y-58646976D01*
X68031575Y-58685842D01*
X68158395Y-58866961D01*
X68158401Y-58866968D01*
X68161505Y-58871401D01*
X68328599Y-59038495D01*
X68333031Y-59041598D01*
X68333033Y-59041600D01*
X68477260Y-59142589D01*
X68522170Y-59174035D01*
X68736337Y-59273903D01*
X68964592Y-59335063D01*
X69200000Y-59355659D01*
X69435408Y-59335063D01*
X69663663Y-59273903D01*
X69877830Y-59174035D01*
X70071401Y-59038495D01*
X70238495Y-58871401D01*
X70368426Y-58685841D01*
X70412743Y-58646976D01*
X70470000Y-58632965D01*
X70527257Y-58646976D01*
X70571575Y-58685842D01*
X70698395Y-58866961D01*
X70698401Y-58866968D01*
X70701505Y-58871401D01*
X70868599Y-59038495D01*
X70873031Y-59041598D01*
X70873033Y-59041600D01*
X71017260Y-59142589D01*
X71062170Y-59174035D01*
X71276337Y-59273903D01*
X71504592Y-59335063D01*
X71740000Y-59355659D01*
X71975408Y-59335063D01*
X72203663Y-59273903D01*
X72417830Y-59174035D01*
X72611401Y-59038495D01*
X72778495Y-58871401D01*
X72908426Y-58685841D01*
X72952743Y-58646976D01*
X73010000Y-58632965D01*
X73067257Y-58646976D01*
X73111575Y-58685842D01*
X73238395Y-58866961D01*
X73238401Y-58866968D01*
X73241505Y-58871401D01*
X73408599Y-59038495D01*
X73413031Y-59041598D01*
X73413033Y-59041600D01*
X73557260Y-59142589D01*
X73602170Y-59174035D01*
X73816337Y-59273903D01*
X74044592Y-59335063D01*
X74280000Y-59355659D01*
X74515408Y-59335063D01*
X74743663Y-59273903D01*
X74957830Y-59174035D01*
X75151401Y-59038495D01*
X75318495Y-58871401D01*
X75448426Y-58685841D01*
X75492743Y-58646976D01*
X75550000Y-58632965D01*
X75607257Y-58646976D01*
X75651575Y-58685842D01*
X75778395Y-58866961D01*
X75778401Y-58866968D01*
X75781505Y-58871401D01*
X75948599Y-59038495D01*
X75953031Y-59041598D01*
X75953033Y-59041600D01*
X76097260Y-59142589D01*
X76142170Y-59174035D01*
X76356337Y-59273903D01*
X76584592Y-59335063D01*
X76820000Y-59355659D01*
X77055408Y-59335063D01*
X77283663Y-59273903D01*
X77497830Y-59174035D01*
X77691401Y-59038495D01*
X77858495Y-58871401D01*
X77988426Y-58685841D01*
X78032743Y-58646976D01*
X78090000Y-58632965D01*
X78147257Y-58646976D01*
X78191575Y-58685842D01*
X78318395Y-58866961D01*
X78318401Y-58866968D01*
X78321505Y-58871401D01*
X78488599Y-59038495D01*
X78493031Y-59041598D01*
X78493033Y-59041600D01*
X78637260Y-59142589D01*
X78682170Y-59174035D01*
X78896337Y-59273903D01*
X79124592Y-59335063D01*
X79360000Y-59355659D01*
X79595408Y-59335063D01*
X79823663Y-59273903D01*
X80037830Y-59174035D01*
X80231401Y-59038495D01*
X80398495Y-58871401D01*
X80528426Y-58685841D01*
X80572743Y-58646976D01*
X80630000Y-58632965D01*
X80687257Y-58646976D01*
X80731575Y-58685842D01*
X80858395Y-58866961D01*
X80858401Y-58866968D01*
X80861505Y-58871401D01*
X81028599Y-59038495D01*
X81033031Y-59041598D01*
X81033033Y-59041600D01*
X81177260Y-59142589D01*
X81222170Y-59174035D01*
X81436337Y-59273903D01*
X81664592Y-59335063D01*
X81900000Y-59355659D01*
X82135408Y-59335063D01*
X82363663Y-59273903D01*
X82577830Y-59174035D01*
X82771401Y-59038495D01*
X82938495Y-58871401D01*
X83068426Y-58685841D01*
X83112743Y-58646976D01*
X83170000Y-58632965D01*
X83227257Y-58646976D01*
X83271575Y-58685842D01*
X83398395Y-58866961D01*
X83398401Y-58866968D01*
X83401505Y-58871401D01*
X83568599Y-59038495D01*
X83573031Y-59041598D01*
X83573033Y-59041600D01*
X83717260Y-59142589D01*
X83762170Y-59174035D01*
X83976337Y-59273903D01*
X84204592Y-59335063D01*
X84440000Y-59355659D01*
X84675408Y-59335063D01*
X84903663Y-59273903D01*
X85117830Y-59174035D01*
X85311401Y-59038495D01*
X85478495Y-58871401D01*
X85608426Y-58685841D01*
X85652743Y-58646976D01*
X85710000Y-58632965D01*
X85767257Y-58646976D01*
X85811575Y-58685842D01*
X85938395Y-58866961D01*
X85938401Y-58866968D01*
X85941505Y-58871401D01*
X86108599Y-59038495D01*
X86113031Y-59041598D01*
X86113033Y-59041600D01*
X86257260Y-59142589D01*
X86302170Y-59174035D01*
X86516337Y-59273903D01*
X86744592Y-59335063D01*
X86980000Y-59355659D01*
X87215408Y-59335063D01*
X87443663Y-59273903D01*
X87657830Y-59174035D01*
X87851401Y-59038495D01*
X88018495Y-58871401D01*
X88148426Y-58685841D01*
X88192743Y-58646976D01*
X88250000Y-58632965D01*
X88307257Y-58646976D01*
X88351575Y-58685842D01*
X88478395Y-58866961D01*
X88478401Y-58866968D01*
X88481505Y-58871401D01*
X88648599Y-59038495D01*
X88653031Y-59041598D01*
X88653033Y-59041600D01*
X88797260Y-59142589D01*
X88842170Y-59174035D01*
X89056337Y-59273903D01*
X89284592Y-59335063D01*
X89520000Y-59355659D01*
X89755408Y-59335063D01*
X89983663Y-59273903D01*
X90197830Y-59174035D01*
X90391401Y-59038495D01*
X90558495Y-58871401D01*
X90688426Y-58685841D01*
X90732743Y-58646976D01*
X90790000Y-58632965D01*
X90847257Y-58646976D01*
X90891575Y-58685842D01*
X91018395Y-58866961D01*
X91018401Y-58866968D01*
X91021505Y-58871401D01*
X91188599Y-59038495D01*
X91193031Y-59041598D01*
X91193033Y-59041600D01*
X91337260Y-59142589D01*
X91382170Y-59174035D01*
X91596337Y-59273903D01*
X91824592Y-59335063D01*
X92060000Y-59355659D01*
X92295408Y-59335063D01*
X92523663Y-59273903D01*
X92737830Y-59174035D01*
X92931401Y-59038495D01*
X93098495Y-58871401D01*
X93228426Y-58685841D01*
X93272743Y-58646976D01*
X93330000Y-58632965D01*
X93387257Y-58646976D01*
X93431575Y-58685842D01*
X93558395Y-58866961D01*
X93558401Y-58866968D01*
X93561505Y-58871401D01*
X93728599Y-59038495D01*
X93733031Y-59041598D01*
X93733033Y-59041600D01*
X93877260Y-59142589D01*
X93922170Y-59174035D01*
X94136337Y-59273903D01*
X94364592Y-59335063D01*
X94600000Y-59355659D01*
X94835408Y-59335063D01*
X95063663Y-59273903D01*
X95277830Y-59174035D01*
X95471401Y-59038495D01*
X95638495Y-58871401D01*
X95768426Y-58685841D01*
X95812743Y-58646976D01*
X95870000Y-58632965D01*
X95927257Y-58646976D01*
X95971575Y-58685842D01*
X96098395Y-58866961D01*
X96098401Y-58866968D01*
X96101505Y-58871401D01*
X96268599Y-59038495D01*
X96273031Y-59041598D01*
X96273033Y-59041600D01*
X96417260Y-59142589D01*
X96462170Y-59174035D01*
X96676337Y-59273903D01*
X96904592Y-59335063D01*
X97140000Y-59355659D01*
X97375408Y-59335063D01*
X97603663Y-59273903D01*
X97817830Y-59174035D01*
X98011401Y-59038495D01*
X98178495Y-58871401D01*
X98308426Y-58685841D01*
X98352743Y-58646976D01*
X98410000Y-58632965D01*
X98467257Y-58646976D01*
X98511575Y-58685842D01*
X98638395Y-58866961D01*
X98638401Y-58866968D01*
X98641505Y-58871401D01*
X98808599Y-59038495D01*
X98813031Y-59041598D01*
X98813033Y-59041600D01*
X98957260Y-59142589D01*
X99002170Y-59174035D01*
X99216337Y-59273903D01*
X99444592Y-59335063D01*
X99680000Y-59355659D01*
X99915408Y-59335063D01*
X100143663Y-59273903D01*
X100357830Y-59174035D01*
X100551401Y-59038495D01*
X100718495Y-58871401D01*
X100848426Y-58685841D01*
X100892743Y-58646976D01*
X100950000Y-58632965D01*
X101007257Y-58646976D01*
X101051575Y-58685842D01*
X101178395Y-58866961D01*
X101178401Y-58866968D01*
X101181505Y-58871401D01*
X101348599Y-59038495D01*
X101353031Y-59041598D01*
X101353033Y-59041600D01*
X101497260Y-59142589D01*
X101542170Y-59174035D01*
X101756337Y-59273903D01*
X101984592Y-59335063D01*
X102220000Y-59355659D01*
X102455408Y-59335063D01*
X102683663Y-59273903D01*
X102897830Y-59174035D01*
X103091401Y-59038495D01*
X103258495Y-58871401D01*
X103388426Y-58685841D01*
X103432743Y-58646976D01*
X103490000Y-58632965D01*
X103547257Y-58646976D01*
X103591575Y-58685842D01*
X103718395Y-58866961D01*
X103718401Y-58866968D01*
X103721505Y-58871401D01*
X103888599Y-59038495D01*
X103893031Y-59041598D01*
X103893033Y-59041600D01*
X104037260Y-59142589D01*
X104082170Y-59174035D01*
X104296337Y-59273903D01*
X104524592Y-59335063D01*
X104760000Y-59355659D01*
X104995408Y-59335063D01*
X105223663Y-59273903D01*
X105437830Y-59174035D01*
X105631401Y-59038495D01*
X105798495Y-58871401D01*
X105928426Y-58685841D01*
X105972743Y-58646976D01*
X106030000Y-58632965D01*
X106087257Y-58646976D01*
G37*
%TD.AperFunction*%
%TA.AperFunction,Conductor*%
G36*
X119999511Y-49310227D02*
G01*
X119999512Y-49310228D01*
X119999538Y-49310227D01*
X120001423Y-49310248D01*
X120167791Y-49314107D01*
X120390934Y-49319949D01*
X120402314Y-49320773D01*
X120589836Y-49343093D01*
X120590532Y-49343179D01*
X120790074Y-49368739D01*
X120800584Y-49370548D01*
X120989372Y-49411524D01*
X120990847Y-49411857D01*
X121182492Y-49456451D01*
X121192075Y-49459091D01*
X121377609Y-49518320D01*
X121379991Y-49519108D01*
X121564388Y-49582238D01*
X121572963Y-49585535D01*
X121752845Y-49662497D01*
X121755845Y-49663828D01*
X121932070Y-49744878D01*
X121939631Y-49748675D01*
X122111851Y-49842661D01*
X122115354Y-49844647D01*
X122281981Y-49942793D01*
X122288517Y-49946923D01*
X122451265Y-50057032D01*
X122455187Y-50059798D01*
X122610788Y-50174092D01*
X122616318Y-50178399D01*
X122767985Y-50303601D01*
X122772141Y-50307190D01*
X122831606Y-50360918D01*
X122915329Y-50436564D01*
X122919876Y-50440887D01*
X122980377Y-50501384D01*
X123058960Y-50579963D01*
X123063272Y-50584498D01*
X123192644Y-50727669D01*
X123196249Y-50731842D01*
X123245786Y-50791843D01*
X123321446Y-50883486D01*
X123325755Y-50889018D01*
X123440073Y-51044631D01*
X123442839Y-51048553D01*
X123552937Y-51211262D01*
X123557079Y-51217815D01*
X123655245Y-51384455D01*
X123657223Y-51387942D01*
X123751216Y-51560154D01*
X123755019Y-51567728D01*
X123836063Y-51743913D01*
X123837411Y-51746950D01*
X123914371Y-51926798D01*
X123917683Y-51935410D01*
X123980800Y-52119735D01*
X123981612Y-52122189D01*
X124040839Y-52307680D01*
X124043486Y-52317287D01*
X124088066Y-52508820D01*
X124088471Y-52510620D01*
X124129405Y-52699153D01*
X124131222Y-52709702D01*
X124156769Y-52909057D01*
X124156905Y-52910156D01*
X124179207Y-53097445D01*
X124180034Y-53108855D01*
X124185889Y-53332017D01*
X124185898Y-53332386D01*
X124189756Y-53498296D01*
X124189778Y-53500216D01*
X124189778Y-53500251D01*
X124189779Y-53500251D01*
X124189790Y-53501156D01*
X124195945Y-86500035D01*
X124195807Y-86500035D01*
X124195945Y-86500619D01*
X124194874Y-86736977D01*
X124194872Y-86737238D01*
X124193452Y-86951059D01*
X124193009Y-86960746D01*
X124173226Y-87193320D01*
X124173157Y-87194102D01*
X124153324Y-87410991D01*
X124152151Y-87420088D01*
X124113894Y-87649589D01*
X124113672Y-87650880D01*
X124075473Y-87865995D01*
X124073665Y-87874451D01*
X124017199Y-88099823D01*
X124016740Y-88101600D01*
X123960426Y-88313039D01*
X123958079Y-88320816D01*
X123883785Y-88540715D01*
X123883009Y-88542943D01*
X123808978Y-88749046D01*
X123806191Y-88756116D01*
X123714519Y-88969284D01*
X123713349Y-88971920D01*
X123622161Y-89171070D01*
X123619033Y-89177415D01*
X123510585Y-89382481D01*
X123508951Y-89385472D01*
X123401244Y-89576257D01*
X123397874Y-89581874D01*
X123273338Y-89777554D01*
X123271175Y-89780838D01*
X123147728Y-89961868D01*
X123144211Y-89966764D01*
X123004396Y-90151791D01*
X123001647Y-90155296D01*
X122863340Y-90325272D01*
X122859773Y-90329463D01*
X122705590Y-90502647D01*
X122702204Y-90506299D01*
X122550023Y-90664001D01*
X122546494Y-90667515D01*
X122378897Y-90827783D01*
X122374836Y-90831497D01*
X122209904Y-90975764D01*
X122206499Y-90978636D01*
X122026559Y-91124962D01*
X122021790Y-91128651D01*
X121845264Y-91258474D01*
X121842061Y-91260753D01*
X121650964Y-91392167D01*
X121645470Y-91395735D01*
X121458627Y-91510179D01*
X121455696Y-91511919D01*
X121254633Y-91627597D01*
X121248403Y-91630949D01*
X121052631Y-91729171D01*
X121050039Y-91730434D01*
X120840258Y-91829648D01*
X120833292Y-91832685D01*
X120629997Y-91913995D01*
X120627797Y-91914850D01*
X120410638Y-91996947D01*
X120402950Y-91999569D01*
X120193652Y-92063378D01*
X120191893Y-92063900D01*
X119968698Y-92128352D01*
X119960311Y-92130460D01*
X119746659Y-92176305D01*
X119745377Y-92176573D01*
X119517403Y-92222977D01*
X119508354Y-92224473D01*
X119292334Y-92252017D01*
X119291554Y-92252114D01*
X119059819Y-92280170D01*
X119050155Y-92280958D01*
X118836373Y-92290000D01*
X118836112Y-92290011D01*
X118602488Y-92299400D01*
X118597509Y-92299500D01*
X48254821Y-92299500D01*
X48204851Y-92288986D01*
X48163355Y-92259226D01*
X36333034Y-79335346D01*
X36308919Y-79296533D01*
X36300500Y-79251620D01*
X36300500Y-76932551D01*
X36872688Y-76932551D01*
X36873056Y-76943780D01*
X36925168Y-77138263D01*
X36928856Y-77148397D01*
X37024113Y-77352676D01*
X37029501Y-77362008D01*
X37158784Y-77546643D01*
X37165721Y-77554909D01*
X37325090Y-77714278D01*
X37333356Y-77721215D01*
X37517991Y-77850498D01*
X37527323Y-77855886D01*
X37731602Y-77951143D01*
X37741736Y-77954831D01*
X37936219Y-78006943D01*
X37947448Y-78007311D01*
X37950000Y-77996369D01*
X38450000Y-77996369D01*
X38452551Y-78007311D01*
X38463780Y-78006943D01*
X38658263Y-77954831D01*
X38668397Y-77951143D01*
X38872676Y-77855886D01*
X38882008Y-77850498D01*
X39066643Y-77721215D01*
X39074909Y-77714278D01*
X39234278Y-77554909D01*
X39241215Y-77546643D01*
X39370498Y-77362008D01*
X39375886Y-77352676D01*
X39471143Y-77148397D01*
X39474831Y-77138263D01*
X39526943Y-76943780D01*
X39527311Y-76932551D01*
X39516369Y-76930000D01*
X38466326Y-76930000D01*
X38453450Y-76933450D01*
X38450000Y-76946326D01*
X38450000Y-77996369D01*
X37950000Y-77996369D01*
X37950000Y-76946326D01*
X37946549Y-76933450D01*
X37933674Y-76930000D01*
X36883631Y-76930000D01*
X36872688Y-76932551D01*
X36300500Y-76932551D01*
X36300500Y-74140000D01*
X36844341Y-74140000D01*
X36864937Y-74375408D01*
X36866336Y-74380630D01*
X36866337Y-74380634D01*
X36924694Y-74598430D01*
X36924697Y-74598438D01*
X36926097Y-74603663D01*
X36928385Y-74608570D01*
X36928386Y-74608572D01*
X37023678Y-74812927D01*
X37023681Y-74812933D01*
X37025965Y-74817830D01*
X37029064Y-74822257D01*
X37029066Y-74822259D01*
X37158399Y-75006966D01*
X37158402Y-75006970D01*
X37161505Y-75011401D01*
X37328599Y-75178495D01*
X37333031Y-75181598D01*
X37333033Y-75181600D01*
X37514595Y-75308731D01*
X37553460Y-75353049D01*
X37567471Y-75410306D01*
X37553460Y-75467563D01*
X37514595Y-75511881D01*
X37333352Y-75638788D01*
X37325092Y-75645719D01*
X37165719Y-75805092D01*
X37158784Y-75813357D01*
X37029508Y-75997982D01*
X37024110Y-76007332D01*
X36928856Y-76211602D01*
X36925168Y-76221736D01*
X36873056Y-76416219D01*
X36872688Y-76427448D01*
X36883631Y-76430000D01*
X39516369Y-76430000D01*
X39527311Y-76427448D01*
X39526943Y-76416219D01*
X39474831Y-76221736D01*
X39471143Y-76211602D01*
X39375889Y-76007332D01*
X39370491Y-75997982D01*
X39241215Y-75813357D01*
X39234280Y-75805092D01*
X39074909Y-75645721D01*
X39066643Y-75638784D01*
X38885405Y-75511880D01*
X38846540Y-75467562D01*
X38832529Y-75410305D01*
X38846540Y-75353048D01*
X38885406Y-75308730D01*
X39066961Y-75181604D01*
X39066961Y-75181603D01*
X39071401Y-75178495D01*
X39238495Y-75011401D01*
X39373652Y-74818376D01*
X39417971Y-74779511D01*
X39475228Y-74765500D01*
X98382225Y-74765500D01*
X98393280Y-74766021D01*
X98400667Y-74767673D01*
X98467872Y-74765561D01*
X98471768Y-74765500D01*
X98495448Y-74765500D01*
X98499350Y-74765500D01*
X98503313Y-74764999D01*
X98514963Y-74764080D01*
X98558627Y-74762709D01*
X98577861Y-74757119D01*
X98596917Y-74753174D01*
X98616792Y-74750664D01*
X98657395Y-74734587D01*
X98668450Y-74730802D01*
X98710390Y-74718618D01*
X98727629Y-74708422D01*
X98745103Y-74699862D01*
X98756474Y-74695360D01*
X98756476Y-74695358D01*
X98763732Y-74692486D01*
X98799069Y-74666811D01*
X98808824Y-74660403D01*
X98846420Y-74638170D01*
X98860584Y-74624005D01*
X98875379Y-74611368D01*
X98891587Y-74599594D01*
X98919428Y-74565938D01*
X98927279Y-74557309D01*
X107687311Y-65797278D01*
X107695481Y-65789844D01*
X107701877Y-65785786D01*
X107747918Y-65736756D01*
X107750535Y-65734054D01*
X107770120Y-65714471D01*
X107772585Y-65711292D01*
X107780167Y-65702416D01*
X107810062Y-65670582D01*
X107819713Y-65653023D01*
X107830390Y-65636770D01*
X107842673Y-65620936D01*
X107860026Y-65580832D01*
X107865158Y-65570361D01*
X107882435Y-65538935D01*
X107882435Y-65538934D01*
X107886197Y-65532092D01*
X107891177Y-65512691D01*
X107897481Y-65494281D01*
X107905438Y-65475896D01*
X107912272Y-65432741D01*
X107914638Y-65421321D01*
X107923560Y-65386574D01*
X107925500Y-65379019D01*
X107925500Y-65358983D01*
X107927025Y-65339597D01*
X107930160Y-65319804D01*
X107926050Y-65276324D01*
X107925500Y-65264655D01*
X107925500Y-59275228D01*
X107939511Y-59217971D01*
X107978376Y-59173653D01*
X108106386Y-59084019D01*
X108171401Y-59038495D01*
X108338495Y-58871401D01*
X108453403Y-58707296D01*
X110559574Y-58707296D01*
X110566848Y-58715482D01*
X110795620Y-58881694D01*
X110802210Y-58885876D01*
X111071032Y-59033662D01*
X111078071Y-59036975D01*
X111363307Y-59149907D01*
X111370702Y-59152310D01*
X111667837Y-59228602D01*
X111675495Y-59230063D01*
X111979846Y-59268511D01*
X111987608Y-59269000D01*
X112294392Y-59269000D01*
X112302153Y-59268511D01*
X112606504Y-59230063D01*
X112614162Y-59228602D01*
X112911297Y-59152310D01*
X112918692Y-59149907D01*
X113203928Y-59036975D01*
X113210967Y-59033662D01*
X113479798Y-58885872D01*
X113486368Y-58881702D01*
X113715153Y-58715480D01*
X113722424Y-58707297D01*
X113716520Y-58698073D01*
X112152542Y-57134095D01*
X112140999Y-57127431D01*
X112129457Y-57134095D01*
X110565478Y-58698073D01*
X110559574Y-58707296D01*
X108453403Y-58707296D01*
X108474035Y-58677830D01*
X108573903Y-58463663D01*
X108635063Y-58235408D01*
X108655659Y-58000000D01*
X108635063Y-57764592D01*
X108573903Y-57536337D01*
X108474035Y-57322171D01*
X108338495Y-57128599D01*
X108171401Y-56961505D01*
X108166968Y-56958401D01*
X108166961Y-56958395D01*
X107985842Y-56831575D01*
X107946976Y-56787257D01*
X107943461Y-56772894D01*
X109636302Y-56772894D01*
X109655564Y-57079059D01*
X109656538Y-57086779D01*
X109714023Y-57388124D01*
X109715959Y-57395663D01*
X109810759Y-57687426D01*
X109813622Y-57694657D01*
X109944243Y-57972240D01*
X109947987Y-57979051D01*
X110112368Y-58238075D01*
X110116942Y-58244371D01*
X110194249Y-58337819D01*
X110205547Y-58345584D01*
X110217532Y-58338913D01*
X111775904Y-56780542D01*
X111782568Y-56769000D01*
X111782567Y-56768999D01*
X112499431Y-56768999D01*
X112506095Y-56780542D01*
X114064467Y-58338914D01*
X114076449Y-58345584D01*
X114087751Y-58337816D01*
X114165054Y-58244374D01*
X114169630Y-58238076D01*
X114334012Y-57979051D01*
X114337756Y-57972240D01*
X114468377Y-57694657D01*
X114471240Y-57687426D01*
X114566040Y-57395663D01*
X114567976Y-57388124D01*
X114625461Y-57086779D01*
X114626435Y-57079059D01*
X114645698Y-56772894D01*
X114645698Y-56765106D01*
X114626435Y-56458940D01*
X114625461Y-56451220D01*
X114567976Y-56149875D01*
X114566040Y-56142336D01*
X114471240Y-55850573D01*
X114468377Y-55843342D01*
X114337756Y-55565759D01*
X114334012Y-55558948D01*
X114169631Y-55299924D01*
X114165057Y-55293628D01*
X114087749Y-55200179D01*
X114076450Y-55192414D01*
X114064467Y-55199084D01*
X112506095Y-56757457D01*
X112499431Y-56768999D01*
X111782567Y-56768999D01*
X111775904Y-56757457D01*
X110217532Y-55199085D01*
X110205548Y-55192415D01*
X110194247Y-55200182D01*
X110116940Y-55293631D01*
X110112373Y-55299917D01*
X109947987Y-55558948D01*
X109944243Y-55565759D01*
X109813622Y-55843342D01*
X109810759Y-55850573D01*
X109715959Y-56142336D01*
X109714023Y-56149875D01*
X109656538Y-56451220D01*
X109655564Y-56458940D01*
X109636302Y-56765106D01*
X109636302Y-56772894D01*
X107943461Y-56772894D01*
X107932965Y-56730000D01*
X107946976Y-56672743D01*
X107985842Y-56628425D01*
X108166961Y-56501604D01*
X108166961Y-56501603D01*
X108171401Y-56498495D01*
X108338495Y-56331401D01*
X108474035Y-56137830D01*
X108573903Y-55923663D01*
X108635063Y-55695408D01*
X108655659Y-55460000D01*
X108635063Y-55224592D01*
X108573903Y-54996337D01*
X108496666Y-54830702D01*
X110559574Y-54830702D01*
X110565480Y-54839927D01*
X112129457Y-56403904D01*
X112141000Y-56410568D01*
X112152542Y-56403904D01*
X113716518Y-54839927D01*
X113722424Y-54830702D01*
X113715150Y-54822516D01*
X113486379Y-54656305D01*
X113479789Y-54652123D01*
X113210967Y-54504337D01*
X113203928Y-54501024D01*
X112918692Y-54388092D01*
X112911297Y-54385689D01*
X112614162Y-54309397D01*
X112606504Y-54307936D01*
X112302153Y-54269488D01*
X112294392Y-54269000D01*
X111987608Y-54269000D01*
X111979846Y-54269488D01*
X111675495Y-54307936D01*
X111667837Y-54309397D01*
X111370702Y-54385689D01*
X111363307Y-54388092D01*
X111078071Y-54501024D01*
X111071032Y-54504337D01*
X110802210Y-54652123D01*
X110795620Y-54656305D01*
X110566848Y-54822516D01*
X110559574Y-54830702D01*
X108496666Y-54830702D01*
X108474035Y-54782171D01*
X108338495Y-54588599D01*
X108171401Y-54421505D01*
X108166970Y-54418402D01*
X108166966Y-54418399D01*
X107982259Y-54289066D01*
X107982257Y-54289064D01*
X107977830Y-54285965D01*
X107972933Y-54283681D01*
X107972927Y-54283678D01*
X107768572Y-54188386D01*
X107768570Y-54188385D01*
X107763663Y-54186097D01*
X107758438Y-54184697D01*
X107758430Y-54184694D01*
X107540634Y-54126337D01*
X107540630Y-54126336D01*
X107535408Y-54124937D01*
X107530020Y-54124465D01*
X107530017Y-54124465D01*
X107305395Y-54104813D01*
X107300000Y-54104341D01*
X107294605Y-54104813D01*
X107069982Y-54124465D01*
X107069977Y-54124465D01*
X107064592Y-54124937D01*
X107059371Y-54126335D01*
X107059365Y-54126337D01*
X106841569Y-54184694D01*
X106841557Y-54184698D01*
X106836337Y-54186097D01*
X106831432Y-54188383D01*
X106831427Y-54188386D01*
X106627081Y-54283675D01*
X106627077Y-54283677D01*
X106622171Y-54285965D01*
X106617738Y-54289068D01*
X106617731Y-54289073D01*
X106433034Y-54418399D01*
X106433029Y-54418402D01*
X106428599Y-54421505D01*
X106424775Y-54425328D01*
X106424769Y-54425334D01*
X106265334Y-54584769D01*
X106265328Y-54584775D01*
X106261505Y-54588599D01*
X106258402Y-54593029D01*
X106258399Y-54593034D01*
X106131575Y-54774159D01*
X106087257Y-54813025D01*
X106030000Y-54827036D01*
X105972743Y-54813025D01*
X105928425Y-54774159D01*
X105842975Y-54652123D01*
X105798495Y-54588599D01*
X105631401Y-54421505D01*
X105626970Y-54418402D01*
X105626966Y-54418399D01*
X105442259Y-54289066D01*
X105442257Y-54289064D01*
X105437830Y-54285965D01*
X105432933Y-54283681D01*
X105432927Y-54283678D01*
X105228572Y-54188386D01*
X105228570Y-54188385D01*
X105223663Y-54186097D01*
X105218438Y-54184697D01*
X105218430Y-54184694D01*
X105000634Y-54126337D01*
X105000630Y-54126336D01*
X104995408Y-54124937D01*
X104990020Y-54124465D01*
X104990017Y-54124465D01*
X104765395Y-54104813D01*
X104760000Y-54104341D01*
X104754605Y-54104813D01*
X104529982Y-54124465D01*
X104529977Y-54124465D01*
X104524592Y-54124937D01*
X104519371Y-54126335D01*
X104519365Y-54126337D01*
X104301569Y-54184694D01*
X104301557Y-54184698D01*
X104296337Y-54186097D01*
X104291432Y-54188383D01*
X104291427Y-54188386D01*
X104087081Y-54283675D01*
X104087077Y-54283677D01*
X104082171Y-54285965D01*
X104077738Y-54289068D01*
X104077731Y-54289073D01*
X103893034Y-54418399D01*
X103893029Y-54418402D01*
X103888599Y-54421505D01*
X103884775Y-54425328D01*
X103884769Y-54425334D01*
X103725334Y-54584769D01*
X103725328Y-54584775D01*
X103721505Y-54588599D01*
X103718402Y-54593029D01*
X103718399Y-54593034D01*
X103591575Y-54774159D01*
X103547257Y-54813025D01*
X103490000Y-54827036D01*
X103432743Y-54813025D01*
X103388425Y-54774159D01*
X103302975Y-54652123D01*
X103258495Y-54588599D01*
X103091401Y-54421505D01*
X103086970Y-54418402D01*
X103086966Y-54418399D01*
X102902259Y-54289066D01*
X102902257Y-54289064D01*
X102897830Y-54285965D01*
X102892933Y-54283681D01*
X102892927Y-54283678D01*
X102688572Y-54188386D01*
X102688570Y-54188385D01*
X102683663Y-54186097D01*
X102678438Y-54184697D01*
X102678430Y-54184694D01*
X102460634Y-54126337D01*
X102460630Y-54126336D01*
X102455408Y-54124937D01*
X102450020Y-54124465D01*
X102450017Y-54124465D01*
X102225395Y-54104813D01*
X102220000Y-54104341D01*
X102214605Y-54104813D01*
X101989982Y-54124465D01*
X101989977Y-54124465D01*
X101984592Y-54124937D01*
X101979371Y-54126335D01*
X101979365Y-54126337D01*
X101761569Y-54184694D01*
X101761557Y-54184698D01*
X101756337Y-54186097D01*
X101751432Y-54188383D01*
X101751427Y-54188386D01*
X101547081Y-54283675D01*
X101547077Y-54283677D01*
X101542171Y-54285965D01*
X101537738Y-54289068D01*
X101537731Y-54289073D01*
X101353034Y-54418399D01*
X101353029Y-54418402D01*
X101348599Y-54421505D01*
X101344775Y-54425328D01*
X101344769Y-54425334D01*
X101185334Y-54584769D01*
X101185328Y-54584775D01*
X101181505Y-54588599D01*
X101178402Y-54593029D01*
X101178399Y-54593034D01*
X101051575Y-54774159D01*
X101007257Y-54813025D01*
X100950000Y-54827036D01*
X100892743Y-54813025D01*
X100848425Y-54774159D01*
X100762975Y-54652123D01*
X100718495Y-54588599D01*
X100551401Y-54421505D01*
X100546970Y-54418402D01*
X100546966Y-54418399D01*
X100362259Y-54289066D01*
X100362257Y-54289064D01*
X100357830Y-54285965D01*
X100352933Y-54283681D01*
X100352927Y-54283678D01*
X100148572Y-54188386D01*
X100148570Y-54188385D01*
X100143663Y-54186097D01*
X100138438Y-54184697D01*
X100138430Y-54184694D01*
X99920634Y-54126337D01*
X99920630Y-54126336D01*
X99915408Y-54124937D01*
X99910020Y-54124465D01*
X99910017Y-54124465D01*
X99685395Y-54104813D01*
X99680000Y-54104341D01*
X99674605Y-54104813D01*
X99449982Y-54124465D01*
X99449977Y-54124465D01*
X99444592Y-54124937D01*
X99439371Y-54126335D01*
X99439365Y-54126337D01*
X99221569Y-54184694D01*
X99221557Y-54184698D01*
X99216337Y-54186097D01*
X99211432Y-54188383D01*
X99211427Y-54188386D01*
X99007081Y-54283675D01*
X99007077Y-54283677D01*
X99002171Y-54285965D01*
X98997738Y-54289068D01*
X98997731Y-54289073D01*
X98813034Y-54418399D01*
X98813029Y-54418402D01*
X98808599Y-54421505D01*
X98804775Y-54425328D01*
X98804769Y-54425334D01*
X98645334Y-54584769D01*
X98645328Y-54584775D01*
X98641505Y-54588599D01*
X98638402Y-54593029D01*
X98638399Y-54593034D01*
X98511575Y-54774159D01*
X98467257Y-54813025D01*
X98410000Y-54827036D01*
X98352743Y-54813025D01*
X98308425Y-54774159D01*
X98222975Y-54652123D01*
X98178495Y-54588599D01*
X98011401Y-54421505D01*
X98006970Y-54418402D01*
X98006966Y-54418399D01*
X97822259Y-54289066D01*
X97822257Y-54289064D01*
X97817830Y-54285965D01*
X97812933Y-54283681D01*
X97812927Y-54283678D01*
X97608572Y-54188386D01*
X97608570Y-54188385D01*
X97603663Y-54186097D01*
X97598438Y-54184697D01*
X97598430Y-54184694D01*
X97380634Y-54126337D01*
X97380630Y-54126336D01*
X97375408Y-54124937D01*
X97370020Y-54124465D01*
X97370017Y-54124465D01*
X97145395Y-54104813D01*
X97140000Y-54104341D01*
X97134605Y-54104813D01*
X96909982Y-54124465D01*
X96909977Y-54124465D01*
X96904592Y-54124937D01*
X96899371Y-54126335D01*
X96899365Y-54126337D01*
X96681569Y-54184694D01*
X96681557Y-54184698D01*
X96676337Y-54186097D01*
X96671432Y-54188383D01*
X96671427Y-54188386D01*
X96467081Y-54283675D01*
X96467077Y-54283677D01*
X96462171Y-54285965D01*
X96457738Y-54289068D01*
X96457731Y-54289073D01*
X96273034Y-54418399D01*
X96273029Y-54418402D01*
X96268599Y-54421505D01*
X96264775Y-54425328D01*
X96264769Y-54425334D01*
X96105334Y-54584769D01*
X96105328Y-54584775D01*
X96101505Y-54588599D01*
X96098402Y-54593029D01*
X96098399Y-54593034D01*
X95971575Y-54774159D01*
X95927257Y-54813025D01*
X95870000Y-54827036D01*
X95812743Y-54813025D01*
X95768425Y-54774159D01*
X95682975Y-54652123D01*
X95638495Y-54588599D01*
X95471401Y-54421505D01*
X95466970Y-54418402D01*
X95466966Y-54418399D01*
X95282259Y-54289066D01*
X95282257Y-54289064D01*
X95277830Y-54285965D01*
X95272933Y-54283681D01*
X95272927Y-54283678D01*
X95068572Y-54188386D01*
X95068570Y-54188385D01*
X95063663Y-54186097D01*
X95058438Y-54184697D01*
X95058430Y-54184694D01*
X94840634Y-54126337D01*
X94840630Y-54126336D01*
X94835408Y-54124937D01*
X94830020Y-54124465D01*
X94830017Y-54124465D01*
X94605395Y-54104813D01*
X94600000Y-54104341D01*
X94594605Y-54104813D01*
X94369982Y-54124465D01*
X94369977Y-54124465D01*
X94364592Y-54124937D01*
X94359371Y-54126335D01*
X94359365Y-54126337D01*
X94141569Y-54184694D01*
X94141557Y-54184698D01*
X94136337Y-54186097D01*
X94131432Y-54188383D01*
X94131427Y-54188386D01*
X93927081Y-54283675D01*
X93927077Y-54283677D01*
X93922171Y-54285965D01*
X93917738Y-54289068D01*
X93917731Y-54289073D01*
X93733034Y-54418399D01*
X93733029Y-54418402D01*
X93728599Y-54421505D01*
X93724775Y-54425328D01*
X93724769Y-54425334D01*
X93565334Y-54584769D01*
X93565328Y-54584775D01*
X93561505Y-54588599D01*
X93558402Y-54593029D01*
X93558399Y-54593034D01*
X93431575Y-54774159D01*
X93387257Y-54813025D01*
X93330000Y-54827036D01*
X93272743Y-54813025D01*
X93228425Y-54774159D01*
X93142975Y-54652123D01*
X93098495Y-54588599D01*
X92931401Y-54421505D01*
X92926970Y-54418402D01*
X92926966Y-54418399D01*
X92742259Y-54289066D01*
X92742257Y-54289064D01*
X92737830Y-54285965D01*
X92732933Y-54283681D01*
X92732927Y-54283678D01*
X92528572Y-54188386D01*
X92528570Y-54188385D01*
X92523663Y-54186097D01*
X92518438Y-54184697D01*
X92518430Y-54184694D01*
X92300634Y-54126337D01*
X92300630Y-54126336D01*
X92295408Y-54124937D01*
X92290020Y-54124465D01*
X92290017Y-54124465D01*
X92065395Y-54104813D01*
X92060000Y-54104341D01*
X92054605Y-54104813D01*
X91829982Y-54124465D01*
X91829977Y-54124465D01*
X91824592Y-54124937D01*
X91819371Y-54126335D01*
X91819365Y-54126337D01*
X91601569Y-54184694D01*
X91601557Y-54184698D01*
X91596337Y-54186097D01*
X91591432Y-54188383D01*
X91591427Y-54188386D01*
X91387081Y-54283675D01*
X91387077Y-54283677D01*
X91382171Y-54285965D01*
X91377738Y-54289068D01*
X91377731Y-54289073D01*
X91193034Y-54418399D01*
X91193029Y-54418402D01*
X91188599Y-54421505D01*
X91184775Y-54425328D01*
X91184769Y-54425334D01*
X91025334Y-54584769D01*
X91025328Y-54584775D01*
X91021505Y-54588599D01*
X91018402Y-54593029D01*
X91018399Y-54593034D01*
X90891575Y-54774159D01*
X90847257Y-54813025D01*
X90790000Y-54827036D01*
X90732743Y-54813025D01*
X90688425Y-54774159D01*
X90602975Y-54652123D01*
X90558495Y-54588599D01*
X90391401Y-54421505D01*
X90386970Y-54418402D01*
X90386966Y-54418399D01*
X90202259Y-54289066D01*
X90202257Y-54289064D01*
X90197830Y-54285965D01*
X90192933Y-54283681D01*
X90192927Y-54283678D01*
X89988572Y-54188386D01*
X89988570Y-54188385D01*
X89983663Y-54186097D01*
X89978438Y-54184697D01*
X89978430Y-54184694D01*
X89760634Y-54126337D01*
X89760630Y-54126336D01*
X89755408Y-54124937D01*
X89750020Y-54124465D01*
X89750017Y-54124465D01*
X89525395Y-54104813D01*
X89520000Y-54104341D01*
X89514605Y-54104813D01*
X89289982Y-54124465D01*
X89289977Y-54124465D01*
X89284592Y-54124937D01*
X89279371Y-54126335D01*
X89279365Y-54126337D01*
X89061569Y-54184694D01*
X89061557Y-54184698D01*
X89056337Y-54186097D01*
X89051432Y-54188383D01*
X89051427Y-54188386D01*
X88847081Y-54283675D01*
X88847077Y-54283677D01*
X88842171Y-54285965D01*
X88837738Y-54289068D01*
X88837731Y-54289073D01*
X88653034Y-54418399D01*
X88653029Y-54418402D01*
X88648599Y-54421505D01*
X88644775Y-54425328D01*
X88644769Y-54425334D01*
X88485334Y-54584769D01*
X88485328Y-54584775D01*
X88481505Y-54588599D01*
X88478402Y-54593029D01*
X88478399Y-54593034D01*
X88351575Y-54774159D01*
X88307257Y-54813025D01*
X88250000Y-54827036D01*
X88192743Y-54813025D01*
X88148425Y-54774159D01*
X88062975Y-54652123D01*
X88018495Y-54588599D01*
X87851401Y-54421505D01*
X87846970Y-54418402D01*
X87846966Y-54418399D01*
X87662259Y-54289066D01*
X87662257Y-54289064D01*
X87657830Y-54285965D01*
X87652933Y-54283681D01*
X87652927Y-54283678D01*
X87448572Y-54188386D01*
X87448570Y-54188385D01*
X87443663Y-54186097D01*
X87438438Y-54184697D01*
X87438430Y-54184694D01*
X87220634Y-54126337D01*
X87220630Y-54126336D01*
X87215408Y-54124937D01*
X87210020Y-54124465D01*
X87210017Y-54124465D01*
X86985395Y-54104813D01*
X86980000Y-54104341D01*
X86974605Y-54104813D01*
X86749982Y-54124465D01*
X86749977Y-54124465D01*
X86744592Y-54124937D01*
X86739371Y-54126335D01*
X86739365Y-54126337D01*
X86521569Y-54184694D01*
X86521557Y-54184698D01*
X86516337Y-54186097D01*
X86511432Y-54188383D01*
X86511427Y-54188386D01*
X86307081Y-54283675D01*
X86307077Y-54283677D01*
X86302171Y-54285965D01*
X86297738Y-54289068D01*
X86297731Y-54289073D01*
X86113034Y-54418399D01*
X86113029Y-54418402D01*
X86108599Y-54421505D01*
X86104775Y-54425328D01*
X86104769Y-54425334D01*
X85945334Y-54584769D01*
X85945328Y-54584775D01*
X85941505Y-54588599D01*
X85938402Y-54593029D01*
X85938399Y-54593034D01*
X85811575Y-54774159D01*
X85767257Y-54813025D01*
X85710000Y-54827036D01*
X85652743Y-54813025D01*
X85608425Y-54774159D01*
X85522975Y-54652123D01*
X85478495Y-54588599D01*
X85311401Y-54421505D01*
X85306970Y-54418402D01*
X85306966Y-54418399D01*
X85122259Y-54289066D01*
X85122257Y-54289064D01*
X85117830Y-54285965D01*
X85112933Y-54283681D01*
X85112927Y-54283678D01*
X84908572Y-54188386D01*
X84908570Y-54188385D01*
X84903663Y-54186097D01*
X84898438Y-54184697D01*
X84898430Y-54184694D01*
X84680634Y-54126337D01*
X84680630Y-54126336D01*
X84675408Y-54124937D01*
X84670020Y-54124465D01*
X84670017Y-54124465D01*
X84445395Y-54104813D01*
X84440000Y-54104341D01*
X84434605Y-54104813D01*
X84209982Y-54124465D01*
X84209977Y-54124465D01*
X84204592Y-54124937D01*
X84199371Y-54126335D01*
X84199365Y-54126337D01*
X83981569Y-54184694D01*
X83981557Y-54184698D01*
X83976337Y-54186097D01*
X83971432Y-54188383D01*
X83971427Y-54188386D01*
X83767081Y-54283675D01*
X83767077Y-54283677D01*
X83762171Y-54285965D01*
X83757738Y-54289068D01*
X83757731Y-54289073D01*
X83573034Y-54418399D01*
X83573029Y-54418402D01*
X83568599Y-54421505D01*
X83564775Y-54425328D01*
X83564769Y-54425334D01*
X83405334Y-54584769D01*
X83405328Y-54584775D01*
X83401505Y-54588599D01*
X83398402Y-54593029D01*
X83398399Y-54593034D01*
X83271575Y-54774159D01*
X83227257Y-54813025D01*
X83170000Y-54827036D01*
X83112743Y-54813025D01*
X83068425Y-54774159D01*
X82982975Y-54652123D01*
X82938495Y-54588599D01*
X82771401Y-54421505D01*
X82766970Y-54418402D01*
X82766966Y-54418399D01*
X82582259Y-54289066D01*
X82582257Y-54289064D01*
X82577830Y-54285965D01*
X82572933Y-54283681D01*
X82572927Y-54283678D01*
X82368572Y-54188386D01*
X82368570Y-54188385D01*
X82363663Y-54186097D01*
X82358438Y-54184697D01*
X82358430Y-54184694D01*
X82140634Y-54126337D01*
X82140630Y-54126336D01*
X82135408Y-54124937D01*
X82130020Y-54124465D01*
X82130017Y-54124465D01*
X81905395Y-54104813D01*
X81900000Y-54104341D01*
X81894605Y-54104813D01*
X81669982Y-54124465D01*
X81669977Y-54124465D01*
X81664592Y-54124937D01*
X81659371Y-54126335D01*
X81659365Y-54126337D01*
X81441569Y-54184694D01*
X81441557Y-54184698D01*
X81436337Y-54186097D01*
X81431432Y-54188383D01*
X81431427Y-54188386D01*
X81227081Y-54283675D01*
X81227077Y-54283677D01*
X81222171Y-54285965D01*
X81217738Y-54289068D01*
X81217731Y-54289073D01*
X81033034Y-54418399D01*
X81033029Y-54418402D01*
X81028599Y-54421505D01*
X81024775Y-54425328D01*
X81024769Y-54425334D01*
X80865334Y-54584769D01*
X80865328Y-54584775D01*
X80861505Y-54588599D01*
X80858402Y-54593029D01*
X80858399Y-54593034D01*
X80731575Y-54774159D01*
X80687257Y-54813025D01*
X80630000Y-54827036D01*
X80572743Y-54813025D01*
X80528425Y-54774159D01*
X80442975Y-54652123D01*
X80398495Y-54588599D01*
X80231401Y-54421505D01*
X80226970Y-54418402D01*
X80226966Y-54418399D01*
X80042259Y-54289066D01*
X80042257Y-54289064D01*
X80037830Y-54285965D01*
X80032933Y-54283681D01*
X80032927Y-54283678D01*
X79828572Y-54188386D01*
X79828570Y-54188385D01*
X79823663Y-54186097D01*
X79818438Y-54184697D01*
X79818430Y-54184694D01*
X79600634Y-54126337D01*
X79600630Y-54126336D01*
X79595408Y-54124937D01*
X79590020Y-54124465D01*
X79590017Y-54124465D01*
X79365395Y-54104813D01*
X79360000Y-54104341D01*
X79354605Y-54104813D01*
X79129982Y-54124465D01*
X79129977Y-54124465D01*
X79124592Y-54124937D01*
X79119371Y-54126335D01*
X79119365Y-54126337D01*
X78901569Y-54184694D01*
X78901557Y-54184698D01*
X78896337Y-54186097D01*
X78891432Y-54188383D01*
X78891427Y-54188386D01*
X78687081Y-54283675D01*
X78687077Y-54283677D01*
X78682171Y-54285965D01*
X78677738Y-54289068D01*
X78677731Y-54289073D01*
X78493034Y-54418399D01*
X78493029Y-54418402D01*
X78488599Y-54421505D01*
X78484775Y-54425328D01*
X78484769Y-54425334D01*
X78325334Y-54584769D01*
X78325328Y-54584775D01*
X78321505Y-54588599D01*
X78318402Y-54593029D01*
X78318399Y-54593034D01*
X78191575Y-54774159D01*
X78147257Y-54813025D01*
X78090000Y-54827036D01*
X78032743Y-54813025D01*
X77988425Y-54774159D01*
X77902975Y-54652123D01*
X77858495Y-54588599D01*
X77691401Y-54421505D01*
X77686970Y-54418402D01*
X77686966Y-54418399D01*
X77502259Y-54289066D01*
X77502257Y-54289064D01*
X77497830Y-54285965D01*
X77492933Y-54283681D01*
X77492927Y-54283678D01*
X77288572Y-54188386D01*
X77288570Y-54188385D01*
X77283663Y-54186097D01*
X77278438Y-54184697D01*
X77278430Y-54184694D01*
X77060634Y-54126337D01*
X77060630Y-54126336D01*
X77055408Y-54124937D01*
X77050020Y-54124465D01*
X77050017Y-54124465D01*
X76825395Y-54104813D01*
X76820000Y-54104341D01*
X76814605Y-54104813D01*
X76589982Y-54124465D01*
X76589977Y-54124465D01*
X76584592Y-54124937D01*
X76579371Y-54126335D01*
X76579365Y-54126337D01*
X76361569Y-54184694D01*
X76361557Y-54184698D01*
X76356337Y-54186097D01*
X76351432Y-54188383D01*
X76351427Y-54188386D01*
X76147081Y-54283675D01*
X76147077Y-54283677D01*
X76142171Y-54285965D01*
X76137738Y-54289068D01*
X76137731Y-54289073D01*
X75953034Y-54418399D01*
X75953029Y-54418402D01*
X75948599Y-54421505D01*
X75944775Y-54425328D01*
X75944769Y-54425334D01*
X75785334Y-54584769D01*
X75785328Y-54584775D01*
X75781505Y-54588599D01*
X75778402Y-54593029D01*
X75778399Y-54593034D01*
X75651575Y-54774159D01*
X75607257Y-54813025D01*
X75550000Y-54827036D01*
X75492743Y-54813025D01*
X75448425Y-54774159D01*
X75362975Y-54652123D01*
X75318495Y-54588599D01*
X75151401Y-54421505D01*
X75146970Y-54418402D01*
X75146966Y-54418399D01*
X74962259Y-54289066D01*
X74962257Y-54289064D01*
X74957830Y-54285965D01*
X74952933Y-54283681D01*
X74952927Y-54283678D01*
X74748572Y-54188386D01*
X74748570Y-54188385D01*
X74743663Y-54186097D01*
X74738438Y-54184697D01*
X74738430Y-54184694D01*
X74520634Y-54126337D01*
X74520630Y-54126336D01*
X74515408Y-54124937D01*
X74510020Y-54124465D01*
X74510017Y-54124465D01*
X74285395Y-54104813D01*
X74280000Y-54104341D01*
X74277928Y-54104522D01*
X74222844Y-54091298D01*
X74178821Y-54053698D01*
X74156666Y-54000211D01*
X74161208Y-53942495D01*
X74191458Y-53893132D01*
X74222771Y-53861819D01*
X74262999Y-53834939D01*
X74310452Y-53825500D01*
X113722548Y-53825500D01*
X113770001Y-53834939D01*
X113810229Y-53861819D01*
X116559181Y-56610772D01*
X116586061Y-56651000D01*
X116595500Y-56698453D01*
X116595500Y-59688548D01*
X116586061Y-59736001D01*
X116559181Y-59776229D01*
X89743794Y-86591613D01*
X89688206Y-86623707D01*
X89624021Y-86623707D01*
X89580068Y-86611930D01*
X89574681Y-86611458D01*
X89574677Y-86611458D01*
X89365395Y-86593149D01*
X89360000Y-86592677D01*
X89354605Y-86593149D01*
X89145330Y-86611457D01*
X89145321Y-86611458D01*
X89139932Y-86611930D01*
X89134711Y-86613328D01*
X89134699Y-86613331D01*
X88931777Y-86667705D01*
X88931772Y-86667706D01*
X88926550Y-86669106D01*
X88921654Y-86671388D01*
X88921643Y-86671393D01*
X88731249Y-86760176D01*
X88731245Y-86760178D01*
X88726339Y-86762466D01*
X88721906Y-86765569D01*
X88721899Y-86765574D01*
X88549815Y-86886068D01*
X88549810Y-86886071D01*
X88545380Y-86889174D01*
X88541556Y-86892997D01*
X88541550Y-86893003D01*
X88393003Y-87041550D01*
X88392997Y-87041556D01*
X88389174Y-87045380D01*
X88386071Y-87049810D01*
X88386068Y-87049815D01*
X88265574Y-87221899D01*
X88265569Y-87221906D01*
X88262466Y-87226339D01*
X88260178Y-87231245D01*
X88260176Y-87231249D01*
X88202382Y-87355189D01*
X88156625Y-87407365D01*
X88090000Y-87426784D01*
X88023375Y-87407365D01*
X87977618Y-87355189D01*
X87962194Y-87322112D01*
X87917534Y-87226339D01*
X87790826Y-87045380D01*
X87634620Y-86889174D01*
X87606056Y-86869173D01*
X87458096Y-86765570D01*
X87458090Y-86765566D01*
X87453662Y-86762466D01*
X87448757Y-86760178D01*
X87448754Y-86760177D01*
X87311659Y-86696249D01*
X87253450Y-86669106D01*
X87248235Y-86667708D01*
X87248228Y-86667706D01*
X87045300Y-86613331D01*
X87045289Y-86613329D01*
X87040068Y-86611930D01*
X87034676Y-86611458D01*
X87034669Y-86611457D01*
X86825395Y-86593149D01*
X86820000Y-86592677D01*
X86814605Y-86593149D01*
X86605330Y-86611457D01*
X86605321Y-86611458D01*
X86599932Y-86611930D01*
X86594711Y-86613328D01*
X86594699Y-86613331D01*
X86391777Y-86667705D01*
X86391772Y-86667706D01*
X86386550Y-86669106D01*
X86381654Y-86671388D01*
X86381643Y-86671393D01*
X86191249Y-86760176D01*
X86191245Y-86760178D01*
X86186339Y-86762466D01*
X86181906Y-86765569D01*
X86181899Y-86765574D01*
X86009815Y-86886068D01*
X86009810Y-86886071D01*
X86005380Y-86889174D01*
X86001556Y-86892997D01*
X86001550Y-86893003D01*
X85853003Y-87041550D01*
X85852997Y-87041556D01*
X85849174Y-87045380D01*
X85846071Y-87049810D01*
X85846068Y-87049815D01*
X85725574Y-87221899D01*
X85725569Y-87221906D01*
X85722466Y-87226339D01*
X85720178Y-87231245D01*
X85720176Y-87231249D01*
X85662382Y-87355189D01*
X85616625Y-87407365D01*
X85550000Y-87426784D01*
X85483375Y-87407365D01*
X85437618Y-87355189D01*
X85422194Y-87322112D01*
X85377534Y-87226339D01*
X85250826Y-87045380D01*
X85094620Y-86889174D01*
X85066056Y-86869173D01*
X84918096Y-86765570D01*
X84918090Y-86765566D01*
X84913662Y-86762466D01*
X84908757Y-86760178D01*
X84908754Y-86760177D01*
X84771659Y-86696249D01*
X84713450Y-86669106D01*
X84708235Y-86667708D01*
X84708228Y-86667706D01*
X84505300Y-86613331D01*
X84505289Y-86613329D01*
X84500068Y-86611930D01*
X84494676Y-86611458D01*
X84494669Y-86611457D01*
X84285395Y-86593149D01*
X84280000Y-86592677D01*
X84274605Y-86593149D01*
X84065330Y-86611457D01*
X84065321Y-86611458D01*
X84059932Y-86611930D01*
X84054711Y-86613328D01*
X84054699Y-86613331D01*
X83851777Y-86667705D01*
X83851772Y-86667706D01*
X83846550Y-86669106D01*
X83841654Y-86671388D01*
X83841643Y-86671393D01*
X83651249Y-86760176D01*
X83651245Y-86760178D01*
X83646339Y-86762466D01*
X83641906Y-86765569D01*
X83641899Y-86765574D01*
X83469815Y-86886068D01*
X83469810Y-86886071D01*
X83465380Y-86889174D01*
X83461556Y-86892997D01*
X83461550Y-86893003D01*
X83313003Y-87041550D01*
X83312997Y-87041556D01*
X83309174Y-87045380D01*
X83306071Y-87049810D01*
X83306068Y-87049815D01*
X83185574Y-87221899D01*
X83185569Y-87221906D01*
X83182466Y-87226339D01*
X83180178Y-87231245D01*
X83180176Y-87231249D01*
X83122382Y-87355189D01*
X83076625Y-87407365D01*
X83010000Y-87426784D01*
X82943375Y-87407365D01*
X82897618Y-87355189D01*
X82882194Y-87322112D01*
X82837534Y-87226339D01*
X82710826Y-87045380D01*
X82554620Y-86889174D01*
X82526056Y-86869173D01*
X82378096Y-86765570D01*
X82378090Y-86765566D01*
X82373662Y-86762466D01*
X82368757Y-86760178D01*
X82368754Y-86760177D01*
X82231659Y-86696249D01*
X82173450Y-86669106D01*
X82168235Y-86667708D01*
X82168228Y-86667706D01*
X81965300Y-86613331D01*
X81965289Y-86613329D01*
X81960068Y-86611930D01*
X81954676Y-86611458D01*
X81954669Y-86611457D01*
X81745395Y-86593149D01*
X81740000Y-86592677D01*
X81734605Y-86593149D01*
X81525330Y-86611457D01*
X81525321Y-86611458D01*
X81519932Y-86611930D01*
X81514711Y-86613328D01*
X81514699Y-86613331D01*
X81311777Y-86667705D01*
X81311772Y-86667706D01*
X81306550Y-86669106D01*
X81301654Y-86671388D01*
X81301643Y-86671393D01*
X81111249Y-86760176D01*
X81111245Y-86760178D01*
X81106339Y-86762466D01*
X81101906Y-86765569D01*
X81101899Y-86765574D01*
X80929815Y-86886068D01*
X80929810Y-86886071D01*
X80925380Y-86889174D01*
X80921556Y-86892997D01*
X80921550Y-86893003D01*
X80773003Y-87041550D01*
X80772997Y-87041556D01*
X80769174Y-87045380D01*
X80766071Y-87049810D01*
X80766068Y-87049815D01*
X80645574Y-87221899D01*
X80645569Y-87221906D01*
X80642466Y-87226339D01*
X80640178Y-87231245D01*
X80640176Y-87231249D01*
X80582382Y-87355189D01*
X80536625Y-87407365D01*
X80470000Y-87426784D01*
X80403375Y-87407365D01*
X80357618Y-87355189D01*
X80342194Y-87322112D01*
X80297534Y-87226339D01*
X80170826Y-87045380D01*
X80014620Y-86889174D01*
X79986056Y-86869173D01*
X79838096Y-86765570D01*
X79838090Y-86765566D01*
X79833662Y-86762466D01*
X79828757Y-86760178D01*
X79828754Y-86760177D01*
X79691659Y-86696249D01*
X79633450Y-86669106D01*
X79628235Y-86667708D01*
X79628228Y-86667706D01*
X79425300Y-86613331D01*
X79425289Y-86613329D01*
X79420068Y-86611930D01*
X79414676Y-86611458D01*
X79414669Y-86611457D01*
X79205395Y-86593149D01*
X79200000Y-86592677D01*
X79194605Y-86593149D01*
X78985330Y-86611457D01*
X78985321Y-86611458D01*
X78979932Y-86611930D01*
X78974711Y-86613328D01*
X78974699Y-86613331D01*
X78771777Y-86667705D01*
X78771772Y-86667706D01*
X78766550Y-86669106D01*
X78761654Y-86671388D01*
X78761643Y-86671393D01*
X78571249Y-86760176D01*
X78571245Y-86760178D01*
X78566339Y-86762466D01*
X78561906Y-86765569D01*
X78561899Y-86765574D01*
X78389815Y-86886068D01*
X78389810Y-86886071D01*
X78385380Y-86889174D01*
X78381556Y-86892997D01*
X78381550Y-86893003D01*
X78233003Y-87041550D01*
X78232997Y-87041556D01*
X78229174Y-87045380D01*
X78226071Y-87049810D01*
X78226068Y-87049815D01*
X78105574Y-87221899D01*
X78105569Y-87221906D01*
X78102466Y-87226339D01*
X78100178Y-87231245D01*
X78100176Y-87231249D01*
X78042382Y-87355189D01*
X77996625Y-87407365D01*
X77930000Y-87426784D01*
X77863375Y-87407365D01*
X77817618Y-87355189D01*
X77802194Y-87322112D01*
X77757534Y-87226339D01*
X77630826Y-87045380D01*
X77474620Y-86889174D01*
X77446056Y-86869173D01*
X77298096Y-86765570D01*
X77298090Y-86765566D01*
X77293662Y-86762466D01*
X77288757Y-86760178D01*
X77288754Y-86760177D01*
X77151659Y-86696249D01*
X77093450Y-86669106D01*
X77088235Y-86667708D01*
X77088228Y-86667706D01*
X76885300Y-86613331D01*
X76885289Y-86613329D01*
X76880068Y-86611930D01*
X76874676Y-86611458D01*
X76874669Y-86611457D01*
X76665395Y-86593149D01*
X76660000Y-86592677D01*
X76654605Y-86593149D01*
X76445330Y-86611457D01*
X76445321Y-86611458D01*
X76439932Y-86611930D01*
X76434711Y-86613328D01*
X76434699Y-86613331D01*
X76231777Y-86667705D01*
X76231772Y-86667706D01*
X76226550Y-86669106D01*
X76221654Y-86671388D01*
X76221643Y-86671393D01*
X76031249Y-86760176D01*
X76031245Y-86760178D01*
X76026339Y-86762466D01*
X76021906Y-86765569D01*
X76021899Y-86765574D01*
X75849815Y-86886068D01*
X75849810Y-86886071D01*
X75845380Y-86889174D01*
X75841556Y-86892997D01*
X75841550Y-86893003D01*
X75693003Y-87041550D01*
X75692997Y-87041556D01*
X75689174Y-87045380D01*
X75686071Y-87049810D01*
X75686068Y-87049815D01*
X75565574Y-87221899D01*
X75565569Y-87221906D01*
X75562466Y-87226339D01*
X75560178Y-87231245D01*
X75560176Y-87231249D01*
X75502382Y-87355189D01*
X75456625Y-87407365D01*
X75390000Y-87426784D01*
X75323375Y-87407365D01*
X75277618Y-87355189D01*
X75262194Y-87322112D01*
X75217534Y-87226339D01*
X75090826Y-87045380D01*
X74934620Y-86889174D01*
X74906056Y-86869173D01*
X74758096Y-86765570D01*
X74758090Y-86765566D01*
X74753662Y-86762466D01*
X74748757Y-86760178D01*
X74748754Y-86760177D01*
X74611659Y-86696249D01*
X74553450Y-86669106D01*
X74548235Y-86667708D01*
X74548228Y-86667706D01*
X74345300Y-86613331D01*
X74345289Y-86613329D01*
X74340068Y-86611930D01*
X74334676Y-86611458D01*
X74334669Y-86611457D01*
X74125395Y-86593149D01*
X74120000Y-86592677D01*
X74114605Y-86593149D01*
X73905330Y-86611457D01*
X73905321Y-86611458D01*
X73899932Y-86611930D01*
X73894711Y-86613328D01*
X73894699Y-86613331D01*
X73691777Y-86667705D01*
X73691772Y-86667706D01*
X73686550Y-86669106D01*
X73681654Y-86671388D01*
X73681643Y-86671393D01*
X73491249Y-86760176D01*
X73491245Y-86760178D01*
X73486339Y-86762466D01*
X73481906Y-86765569D01*
X73481899Y-86765574D01*
X73309815Y-86886068D01*
X73309810Y-86886071D01*
X73305380Y-86889174D01*
X73301556Y-86892997D01*
X73301550Y-86893003D01*
X73153003Y-87041550D01*
X73152997Y-87041556D01*
X73149174Y-87045380D01*
X73146071Y-87049810D01*
X73146068Y-87049815D01*
X73025574Y-87221899D01*
X73025569Y-87221906D01*
X73022466Y-87226339D01*
X73020178Y-87231245D01*
X73020176Y-87231249D01*
X72931393Y-87421643D01*
X72931388Y-87421654D01*
X72929106Y-87426550D01*
X72927706Y-87431772D01*
X72927705Y-87431777D01*
X72873331Y-87634699D01*
X72873328Y-87634711D01*
X72871930Y-87639932D01*
X72871458Y-87645321D01*
X72871457Y-87645330D01*
X72854277Y-87841708D01*
X72852677Y-87860000D01*
X72853149Y-87865395D01*
X72871457Y-88074669D01*
X72871458Y-88074676D01*
X72871930Y-88080068D01*
X72873329Y-88085289D01*
X72873331Y-88085300D01*
X72927706Y-88288228D01*
X72927708Y-88288235D01*
X72929106Y-88293450D01*
X73022466Y-88493662D01*
X73025566Y-88498090D01*
X73025570Y-88498096D01*
X73129173Y-88646056D01*
X73149174Y-88674620D01*
X73305380Y-88830826D01*
X73395858Y-88894179D01*
X73481903Y-88954429D01*
X73481906Y-88954430D01*
X73486338Y-88957534D01*
X73686550Y-89050894D01*
X73691770Y-89052292D01*
X73691771Y-89052293D01*
X73894699Y-89106668D01*
X73894701Y-89106668D01*
X73899932Y-89108070D01*
X74120000Y-89127323D01*
X74340068Y-89108070D01*
X74553450Y-89050894D01*
X74753662Y-88957534D01*
X74934620Y-88830826D01*
X75090826Y-88674620D01*
X75217534Y-88493662D01*
X75277618Y-88364808D01*
X75323375Y-88312634D01*
X75390000Y-88293214D01*
X75456625Y-88312634D01*
X75502381Y-88364808D01*
X75562466Y-88493662D01*
X75565566Y-88498090D01*
X75565570Y-88498096D01*
X75669173Y-88646056D01*
X75689174Y-88674620D01*
X75845380Y-88830826D01*
X75935858Y-88894179D01*
X76021903Y-88954429D01*
X76021906Y-88954430D01*
X76026338Y-88957534D01*
X76226550Y-89050894D01*
X76231770Y-89052292D01*
X76231771Y-89052293D01*
X76434699Y-89106668D01*
X76434701Y-89106668D01*
X76439932Y-89108070D01*
X76660000Y-89127323D01*
X76880068Y-89108070D01*
X77093450Y-89050894D01*
X77293662Y-88957534D01*
X77474620Y-88830826D01*
X77630826Y-88674620D01*
X77757534Y-88493662D01*
X77817618Y-88364808D01*
X77863375Y-88312634D01*
X77930000Y-88293214D01*
X77996625Y-88312634D01*
X78042381Y-88364808D01*
X78102466Y-88493662D01*
X78105566Y-88498090D01*
X78105570Y-88498096D01*
X78209173Y-88646056D01*
X78229174Y-88674620D01*
X78385380Y-88830826D01*
X78475858Y-88894179D01*
X78561903Y-88954429D01*
X78561906Y-88954430D01*
X78566338Y-88957534D01*
X78766550Y-89050894D01*
X78771770Y-89052292D01*
X78771771Y-89052293D01*
X78974699Y-89106668D01*
X78974701Y-89106668D01*
X78979932Y-89108070D01*
X79200000Y-89127323D01*
X79420068Y-89108070D01*
X79633450Y-89050894D01*
X79833662Y-88957534D01*
X80014620Y-88830826D01*
X80170826Y-88674620D01*
X80297534Y-88493662D01*
X80357618Y-88364808D01*
X80403375Y-88312634D01*
X80470000Y-88293214D01*
X80536625Y-88312634D01*
X80582381Y-88364808D01*
X80642466Y-88493662D01*
X80645566Y-88498090D01*
X80645570Y-88498096D01*
X80749173Y-88646056D01*
X80769174Y-88674620D01*
X80925380Y-88830826D01*
X81015858Y-88894179D01*
X81101903Y-88954429D01*
X81101906Y-88954430D01*
X81106338Y-88957534D01*
X81306550Y-89050894D01*
X81311770Y-89052292D01*
X81311771Y-89052293D01*
X81514699Y-89106668D01*
X81514701Y-89106668D01*
X81519932Y-89108070D01*
X81740000Y-89127323D01*
X81960068Y-89108070D01*
X82173450Y-89050894D01*
X82373662Y-88957534D01*
X82554620Y-88830826D01*
X82710826Y-88674620D01*
X82837534Y-88493662D01*
X82897618Y-88364808D01*
X82943375Y-88312634D01*
X83010000Y-88293214D01*
X83076625Y-88312634D01*
X83122381Y-88364808D01*
X83182466Y-88493662D01*
X83185566Y-88498090D01*
X83185570Y-88498096D01*
X83289173Y-88646056D01*
X83309174Y-88674620D01*
X83465380Y-88830826D01*
X83555858Y-88894179D01*
X83641903Y-88954429D01*
X83641906Y-88954430D01*
X83646338Y-88957534D01*
X83846550Y-89050894D01*
X83851770Y-89052292D01*
X83851771Y-89052293D01*
X84054699Y-89106668D01*
X84054701Y-89106668D01*
X84059932Y-89108070D01*
X84280000Y-89127323D01*
X84500068Y-89108070D01*
X84713450Y-89050894D01*
X84913662Y-88957534D01*
X85094620Y-88830826D01*
X85250826Y-88674620D01*
X85377534Y-88493662D01*
X85437618Y-88364808D01*
X85483375Y-88312634D01*
X85550000Y-88293214D01*
X85616625Y-88312634D01*
X85662381Y-88364808D01*
X85722466Y-88493662D01*
X85725566Y-88498090D01*
X85725570Y-88498096D01*
X85829173Y-88646056D01*
X85849174Y-88674620D01*
X86005380Y-88830826D01*
X86095858Y-88894179D01*
X86181903Y-88954429D01*
X86181906Y-88954430D01*
X86186338Y-88957534D01*
X86386550Y-89050894D01*
X86391770Y-89052292D01*
X86391771Y-89052293D01*
X86594699Y-89106668D01*
X86594701Y-89106668D01*
X86599932Y-89108070D01*
X86820000Y-89127323D01*
X87040068Y-89108070D01*
X87253450Y-89050894D01*
X87453662Y-88957534D01*
X87634620Y-88830826D01*
X87790826Y-88674620D01*
X87917534Y-88493662D01*
X87977618Y-88364808D01*
X88023375Y-88312634D01*
X88090000Y-88293214D01*
X88156625Y-88312634D01*
X88202381Y-88364808D01*
X88262466Y-88493662D01*
X88265566Y-88498090D01*
X88265570Y-88498096D01*
X88369173Y-88646056D01*
X88389174Y-88674620D01*
X88545380Y-88830826D01*
X88635858Y-88894179D01*
X88721903Y-88954429D01*
X88721906Y-88954430D01*
X88726338Y-88957534D01*
X88926550Y-89050894D01*
X88931770Y-89052292D01*
X88931771Y-89052293D01*
X89134699Y-89106668D01*
X89134701Y-89106668D01*
X89139932Y-89108070D01*
X89360000Y-89127323D01*
X89580068Y-89108070D01*
X89793450Y-89050894D01*
X89993662Y-88957534D01*
X90174620Y-88830826D01*
X90330826Y-88674620D01*
X90457534Y-88493662D01*
X90517618Y-88364808D01*
X90563375Y-88312634D01*
X90630000Y-88293214D01*
X90696625Y-88312634D01*
X90742381Y-88364808D01*
X90802466Y-88493662D01*
X90805566Y-88498090D01*
X90805570Y-88498096D01*
X90909173Y-88646056D01*
X90929174Y-88674620D01*
X91085380Y-88830826D01*
X91175858Y-88894179D01*
X91261903Y-88954429D01*
X91261906Y-88954430D01*
X91266338Y-88957534D01*
X91466550Y-89050894D01*
X91471770Y-89052292D01*
X91471771Y-89052293D01*
X91674699Y-89106668D01*
X91674701Y-89106668D01*
X91679932Y-89108070D01*
X91900000Y-89127323D01*
X92120068Y-89108070D01*
X92333450Y-89050894D01*
X92533662Y-88957534D01*
X92714620Y-88830826D01*
X92870826Y-88674620D01*
X92997534Y-88493662D01*
X93057618Y-88364808D01*
X93103375Y-88312634D01*
X93170000Y-88293214D01*
X93236625Y-88312634D01*
X93282381Y-88364808D01*
X93342466Y-88493662D01*
X93345566Y-88498090D01*
X93345570Y-88498096D01*
X93449173Y-88646056D01*
X93469174Y-88674620D01*
X93625380Y-88830826D01*
X93715858Y-88894179D01*
X93801903Y-88954429D01*
X93801906Y-88954430D01*
X93806338Y-88957534D01*
X94006550Y-89050894D01*
X94011770Y-89052292D01*
X94011771Y-89052293D01*
X94214699Y-89106668D01*
X94214701Y-89106668D01*
X94219932Y-89108070D01*
X94440000Y-89127323D01*
X94660068Y-89108070D01*
X94873450Y-89050894D01*
X95073662Y-88957534D01*
X95254620Y-88830826D01*
X95410826Y-88674620D01*
X95537534Y-88493662D01*
X95597618Y-88364808D01*
X95643375Y-88312634D01*
X95710000Y-88293214D01*
X95776625Y-88312634D01*
X95822381Y-88364808D01*
X95882466Y-88493662D01*
X95885566Y-88498090D01*
X95885570Y-88498096D01*
X95989173Y-88646056D01*
X96009174Y-88674620D01*
X96165380Y-88830826D01*
X96255858Y-88894179D01*
X96341903Y-88954429D01*
X96341906Y-88954430D01*
X96346338Y-88957534D01*
X96546550Y-89050894D01*
X96551770Y-89052292D01*
X96551771Y-89052293D01*
X96754699Y-89106668D01*
X96754701Y-89106668D01*
X96759932Y-89108070D01*
X96980000Y-89127323D01*
X97200068Y-89108070D01*
X97413450Y-89050894D01*
X97613662Y-88957534D01*
X97794620Y-88830826D01*
X97950826Y-88674620D01*
X98077534Y-88493662D01*
X98137618Y-88364808D01*
X98183375Y-88312634D01*
X98250000Y-88293214D01*
X98316625Y-88312634D01*
X98362381Y-88364808D01*
X98422466Y-88493662D01*
X98425566Y-88498090D01*
X98425570Y-88498096D01*
X98529173Y-88646056D01*
X98549174Y-88674620D01*
X98705380Y-88830826D01*
X98795858Y-88894179D01*
X98881903Y-88954429D01*
X98881906Y-88954430D01*
X98886338Y-88957534D01*
X99086550Y-89050894D01*
X99091770Y-89052292D01*
X99091771Y-89052293D01*
X99294699Y-89106668D01*
X99294701Y-89106668D01*
X99299932Y-89108070D01*
X99520000Y-89127323D01*
X99740068Y-89108070D01*
X99953450Y-89050894D01*
X100153662Y-88957534D01*
X100334620Y-88830826D01*
X100490826Y-88674620D01*
X100617534Y-88493662D01*
X100677618Y-88364808D01*
X100723375Y-88312634D01*
X100790000Y-88293214D01*
X100856625Y-88312634D01*
X100902381Y-88364808D01*
X100962466Y-88493662D01*
X100965566Y-88498090D01*
X100965570Y-88498096D01*
X101069173Y-88646056D01*
X101089174Y-88674620D01*
X101245380Y-88830826D01*
X101335858Y-88894179D01*
X101421903Y-88954429D01*
X101421906Y-88954430D01*
X101426338Y-88957534D01*
X101626550Y-89050894D01*
X101631770Y-89052292D01*
X101631771Y-89052293D01*
X101834699Y-89106668D01*
X101834701Y-89106668D01*
X101839932Y-89108070D01*
X102060000Y-89127323D01*
X102280068Y-89108070D01*
X102493450Y-89050894D01*
X102693662Y-88957534D01*
X102874620Y-88830826D01*
X103030826Y-88674620D01*
X103157534Y-88493662D01*
X103217618Y-88364808D01*
X103263375Y-88312634D01*
X103330000Y-88293214D01*
X103396625Y-88312634D01*
X103442381Y-88364808D01*
X103502466Y-88493662D01*
X103505566Y-88498090D01*
X103505570Y-88498096D01*
X103609173Y-88646056D01*
X103629174Y-88674620D01*
X103785380Y-88830826D01*
X103875858Y-88894179D01*
X103961903Y-88954429D01*
X103961906Y-88954430D01*
X103966338Y-88957534D01*
X104166550Y-89050894D01*
X104171770Y-89052292D01*
X104171771Y-89052293D01*
X104374699Y-89106668D01*
X104374701Y-89106668D01*
X104379932Y-89108070D01*
X104600000Y-89127323D01*
X104820068Y-89108070D01*
X105033450Y-89050894D01*
X105233662Y-88957534D01*
X105414620Y-88830826D01*
X105570826Y-88674620D01*
X105697534Y-88493662D01*
X105790894Y-88293450D01*
X105848070Y-88080068D01*
X105867323Y-87860000D01*
X105848070Y-87639932D01*
X105790894Y-87426550D01*
X105697534Y-87226339D01*
X105570826Y-87045380D01*
X105414620Y-86889174D01*
X105386056Y-86869173D01*
X105238096Y-86765570D01*
X105238090Y-86765566D01*
X105233662Y-86762466D01*
X105228757Y-86760178D01*
X105228754Y-86760177D01*
X105091659Y-86696249D01*
X105033450Y-86669106D01*
X105028235Y-86667708D01*
X105028228Y-86667706D01*
X104825300Y-86613331D01*
X104825289Y-86613329D01*
X104820068Y-86611930D01*
X104814676Y-86611458D01*
X104814669Y-86611457D01*
X104605395Y-86593149D01*
X104600000Y-86592677D01*
X104594605Y-86593149D01*
X104385330Y-86611457D01*
X104385321Y-86611458D01*
X104379932Y-86611930D01*
X104374711Y-86613328D01*
X104374699Y-86613331D01*
X104171777Y-86667705D01*
X104171772Y-86667706D01*
X104166550Y-86669106D01*
X104161654Y-86671388D01*
X104161643Y-86671393D01*
X103971249Y-86760176D01*
X103971245Y-86760178D01*
X103966339Y-86762466D01*
X103961906Y-86765569D01*
X103961899Y-86765574D01*
X103789815Y-86886068D01*
X103789810Y-86886071D01*
X103785380Y-86889174D01*
X103781556Y-86892997D01*
X103781550Y-86893003D01*
X103633003Y-87041550D01*
X103632997Y-87041556D01*
X103629174Y-87045380D01*
X103626071Y-87049810D01*
X103626068Y-87049815D01*
X103505574Y-87221899D01*
X103505569Y-87221906D01*
X103502466Y-87226339D01*
X103500178Y-87231245D01*
X103500176Y-87231249D01*
X103442382Y-87355189D01*
X103396625Y-87407365D01*
X103330000Y-87426784D01*
X103263375Y-87407365D01*
X103217618Y-87355189D01*
X103202194Y-87322112D01*
X103157534Y-87226339D01*
X103030826Y-87045380D01*
X102874620Y-86889174D01*
X102846056Y-86869173D01*
X102698096Y-86765570D01*
X102698090Y-86765566D01*
X102693662Y-86762466D01*
X102688757Y-86760178D01*
X102688754Y-86760177D01*
X102551659Y-86696249D01*
X102493450Y-86669106D01*
X102488235Y-86667708D01*
X102488228Y-86667706D01*
X102285300Y-86613331D01*
X102285289Y-86613329D01*
X102280068Y-86611930D01*
X102274676Y-86611458D01*
X102274669Y-86611457D01*
X102065395Y-86593149D01*
X102060000Y-86592677D01*
X102054605Y-86593149D01*
X101845330Y-86611457D01*
X101845321Y-86611458D01*
X101839932Y-86611930D01*
X101834711Y-86613328D01*
X101834699Y-86613331D01*
X101631777Y-86667705D01*
X101631772Y-86667706D01*
X101626550Y-86669106D01*
X101621654Y-86671388D01*
X101621643Y-86671393D01*
X101431249Y-86760176D01*
X101431245Y-86760178D01*
X101426339Y-86762466D01*
X101421906Y-86765569D01*
X101421899Y-86765574D01*
X101249815Y-86886068D01*
X101249810Y-86886071D01*
X101245380Y-86889174D01*
X101241556Y-86892997D01*
X101241550Y-86893003D01*
X101093003Y-87041550D01*
X101092997Y-87041556D01*
X101089174Y-87045380D01*
X101086071Y-87049810D01*
X101086068Y-87049815D01*
X100965574Y-87221899D01*
X100965569Y-87221906D01*
X100962466Y-87226339D01*
X100960178Y-87231245D01*
X100960176Y-87231249D01*
X100902382Y-87355189D01*
X100856625Y-87407365D01*
X100790000Y-87426784D01*
X100723375Y-87407365D01*
X100677618Y-87355189D01*
X100662194Y-87322112D01*
X100617534Y-87226339D01*
X100490826Y-87045380D01*
X100334620Y-86889174D01*
X100306056Y-86869173D01*
X100158096Y-86765570D01*
X100158090Y-86765566D01*
X100153662Y-86762466D01*
X100148757Y-86760178D01*
X100148754Y-86760177D01*
X100011659Y-86696249D01*
X99953450Y-86669106D01*
X99948235Y-86667708D01*
X99948228Y-86667706D01*
X99745300Y-86613331D01*
X99745289Y-86613329D01*
X99740068Y-86611930D01*
X99734676Y-86611458D01*
X99734669Y-86611457D01*
X99525395Y-86593149D01*
X99520000Y-86592677D01*
X99514605Y-86593149D01*
X99305330Y-86611457D01*
X99305321Y-86611458D01*
X99299932Y-86611930D01*
X99294711Y-86613328D01*
X99294699Y-86613331D01*
X99091777Y-86667705D01*
X99091772Y-86667706D01*
X99086550Y-86669106D01*
X99081654Y-86671388D01*
X99081643Y-86671393D01*
X98891249Y-86760176D01*
X98891245Y-86760178D01*
X98886339Y-86762466D01*
X98881906Y-86765569D01*
X98881899Y-86765574D01*
X98709815Y-86886068D01*
X98709810Y-86886071D01*
X98705380Y-86889174D01*
X98701556Y-86892997D01*
X98701550Y-86893003D01*
X98553003Y-87041550D01*
X98552997Y-87041556D01*
X98549174Y-87045380D01*
X98546071Y-87049810D01*
X98546068Y-87049815D01*
X98425574Y-87221899D01*
X98425569Y-87221906D01*
X98422466Y-87226339D01*
X98420178Y-87231245D01*
X98420176Y-87231249D01*
X98362382Y-87355189D01*
X98316625Y-87407365D01*
X98250000Y-87426784D01*
X98183375Y-87407365D01*
X98137618Y-87355189D01*
X98122194Y-87322112D01*
X98077534Y-87226339D01*
X97950826Y-87045380D01*
X97794620Y-86889174D01*
X97766056Y-86869173D01*
X97618096Y-86765570D01*
X97618090Y-86765566D01*
X97613662Y-86762466D01*
X97608757Y-86760178D01*
X97608754Y-86760177D01*
X97471659Y-86696249D01*
X97413450Y-86669106D01*
X97408235Y-86667708D01*
X97408228Y-86667706D01*
X97205300Y-86613331D01*
X97205289Y-86613329D01*
X97200068Y-86611930D01*
X97194676Y-86611458D01*
X97194669Y-86611457D01*
X96985395Y-86593149D01*
X96980000Y-86592677D01*
X96974605Y-86593149D01*
X96765330Y-86611457D01*
X96765321Y-86611458D01*
X96759932Y-86611930D01*
X96754711Y-86613328D01*
X96754699Y-86613331D01*
X96551777Y-86667705D01*
X96551772Y-86667706D01*
X96546550Y-86669106D01*
X96541654Y-86671388D01*
X96541643Y-86671393D01*
X96351249Y-86760176D01*
X96351245Y-86760178D01*
X96346339Y-86762466D01*
X96341906Y-86765569D01*
X96341899Y-86765574D01*
X96169815Y-86886068D01*
X96169810Y-86886071D01*
X96165380Y-86889174D01*
X96161556Y-86892997D01*
X96161550Y-86893003D01*
X96013003Y-87041550D01*
X96012997Y-87041556D01*
X96009174Y-87045380D01*
X96006071Y-87049810D01*
X96006068Y-87049815D01*
X95885574Y-87221899D01*
X95885569Y-87221906D01*
X95882466Y-87226339D01*
X95880178Y-87231245D01*
X95880176Y-87231249D01*
X95822382Y-87355189D01*
X95776625Y-87407365D01*
X95710000Y-87426784D01*
X95643375Y-87407365D01*
X95597618Y-87355189D01*
X95582194Y-87322112D01*
X95537534Y-87226339D01*
X95410826Y-87045380D01*
X95254620Y-86889174D01*
X95226056Y-86869173D01*
X95078096Y-86765570D01*
X95078090Y-86765566D01*
X95073662Y-86762466D01*
X95068757Y-86760178D01*
X95068754Y-86760177D01*
X94931659Y-86696249D01*
X94873450Y-86669106D01*
X94868235Y-86667708D01*
X94868228Y-86667706D01*
X94665300Y-86613331D01*
X94665289Y-86613329D01*
X94660068Y-86611930D01*
X94654676Y-86611458D01*
X94654669Y-86611457D01*
X94445395Y-86593149D01*
X94440000Y-86592677D01*
X94434605Y-86593149D01*
X94434603Y-86593149D01*
X94354092Y-86600192D01*
X94294834Y-86590806D01*
X94246919Y-86554699D01*
X94221564Y-86500324D01*
X94224704Y-86440410D01*
X94255603Y-86388985D01*
X118425311Y-62219278D01*
X118433481Y-62211844D01*
X118439877Y-62207786D01*
X118485918Y-62158756D01*
X118488535Y-62156054D01*
X118508120Y-62136471D01*
X118510585Y-62133292D01*
X118518167Y-62124416D01*
X118548062Y-62092582D01*
X118557713Y-62075023D01*
X118568390Y-62058770D01*
X118580673Y-62042936D01*
X118598018Y-62002852D01*
X118603151Y-61992371D01*
X118624197Y-61954092D01*
X118629179Y-61934684D01*
X118635482Y-61916276D01*
X118643437Y-61897896D01*
X118650271Y-61854744D01*
X118652633Y-61843338D01*
X118663500Y-61801019D01*
X118663500Y-61780983D01*
X118665027Y-61761585D01*
X118666939Y-61749513D01*
X118666938Y-61749513D01*
X118668160Y-61741804D01*
X118664050Y-61698324D01*
X118663500Y-61686655D01*
X118663500Y-55631775D01*
X118664021Y-55620719D01*
X118665673Y-55613333D01*
X118663561Y-55546113D01*
X118663500Y-55542219D01*
X118663500Y-55518542D01*
X118663500Y-55514650D01*
X118662998Y-55510683D01*
X118662081Y-55499026D01*
X118660710Y-55455373D01*
X118655118Y-55436128D01*
X118651174Y-55417083D01*
X118648664Y-55397208D01*
X118632579Y-55356583D01*
X118628806Y-55345562D01*
X118616618Y-55303610D01*
X118606417Y-55286360D01*
X118597863Y-55268901D01*
X118590486Y-55250268D01*
X118564808Y-55214925D01*
X118558401Y-55205171D01*
X118540142Y-55174296D01*
X118540141Y-55174294D01*
X118536170Y-55167580D01*
X118522005Y-55153415D01*
X118509370Y-55138622D01*
X118497594Y-55122413D01*
X118491583Y-55117440D01*
X118491581Y-55117438D01*
X118463941Y-55094573D01*
X118455300Y-55086710D01*
X115381286Y-52012695D01*
X115373842Y-52004514D01*
X115369786Y-51998123D01*
X115320775Y-51952098D01*
X115317978Y-51949387D01*
X115301227Y-51932636D01*
X115298471Y-51929880D01*
X115295290Y-51927412D01*
X115286414Y-51919830D01*
X115260269Y-51895278D01*
X115260267Y-51895276D01*
X115254582Y-51889938D01*
X115247749Y-51886182D01*
X115247743Y-51886177D01*
X115237025Y-51880285D01*
X115220766Y-51869606D01*
X115211095Y-51862104D01*
X115211092Y-51862102D01*
X115204936Y-51857327D01*
X115197779Y-51854229D01*
X115197776Y-51854228D01*
X115164849Y-51839978D01*
X115154363Y-51834841D01*
X115122932Y-51817562D01*
X115122923Y-51817558D01*
X115116092Y-51813803D01*
X115108535Y-51811862D01*
X115108531Y-51811861D01*
X115096688Y-51808820D01*
X115078284Y-51802519D01*
X115067057Y-51797660D01*
X115067050Y-51797658D01*
X115059896Y-51794562D01*
X115052192Y-51793341D01*
X115052190Y-51793341D01*
X115016759Y-51787729D01*
X115005324Y-51785361D01*
X114970571Y-51776438D01*
X114970563Y-51776437D01*
X114963019Y-51774500D01*
X114955223Y-51774500D01*
X114942983Y-51774500D01*
X114923597Y-51772974D01*
X114903804Y-51769840D01*
X114896038Y-51770574D01*
X114896035Y-51770574D01*
X114860324Y-51773950D01*
X114848655Y-51774500D01*
X72337775Y-51774500D01*
X72326719Y-51773978D01*
X72319333Y-51772327D01*
X72311545Y-51772571D01*
X72311538Y-51772571D01*
X72252113Y-51774439D01*
X72248219Y-51774500D01*
X72220650Y-51774500D01*
X72216794Y-51774986D01*
X72216791Y-51774987D01*
X72216735Y-51774994D01*
X72216662Y-51775003D01*
X72205044Y-51775917D01*
X72169165Y-51777045D01*
X72169164Y-51777045D01*
X72161373Y-51777290D01*
X72153888Y-51779464D01*
X72153884Y-51779465D01*
X72142125Y-51782881D01*
X72123087Y-51786823D01*
X72110949Y-51788357D01*
X72110941Y-51788358D01*
X72103208Y-51789336D01*
X72095960Y-51792205D01*
X72095954Y-51792207D01*
X72062597Y-51805413D01*
X72051554Y-51809194D01*
X72017096Y-51819206D01*
X72017089Y-51819208D01*
X72009610Y-51821382D01*
X72002905Y-51825347D01*
X72002896Y-51825351D01*
X71992356Y-51831584D01*
X71974893Y-51840139D01*
X71963522Y-51844641D01*
X71963516Y-51844643D01*
X71956268Y-51847514D01*
X71949963Y-51852094D01*
X71949953Y-51852100D01*
X71920934Y-51873183D01*
X71911178Y-51879592D01*
X71880293Y-51897858D01*
X71880288Y-51897861D01*
X71873580Y-51901829D01*
X71868067Y-51907340D01*
X71868060Y-51907347D01*
X71859407Y-51916000D01*
X71844624Y-51928626D01*
X71834727Y-51935817D01*
X71834720Y-51935823D01*
X71828413Y-51940406D01*
X71823446Y-51946408D01*
X71823435Y-51946420D01*
X71800570Y-51974059D01*
X71792710Y-51982697D01*
X69655646Y-54119761D01*
X69600059Y-54151855D01*
X69535873Y-54151855D01*
X69440637Y-54126338D01*
X69440636Y-54126337D01*
X69435408Y-54124937D01*
X69430020Y-54124465D01*
X69430017Y-54124465D01*
X69205395Y-54104813D01*
X69200000Y-54104341D01*
X69194605Y-54104813D01*
X68969982Y-54124465D01*
X68969977Y-54124465D01*
X68964592Y-54124937D01*
X68959371Y-54126335D01*
X68959365Y-54126337D01*
X68741569Y-54184694D01*
X68741557Y-54184698D01*
X68736337Y-54186097D01*
X68731432Y-54188383D01*
X68731427Y-54188386D01*
X68527081Y-54283675D01*
X68527077Y-54283677D01*
X68522171Y-54285965D01*
X68517738Y-54289068D01*
X68517731Y-54289073D01*
X68333034Y-54418399D01*
X68333029Y-54418402D01*
X68328599Y-54421505D01*
X68324775Y-54425328D01*
X68324769Y-54425334D01*
X68165334Y-54584769D01*
X68165328Y-54584775D01*
X68161505Y-54588599D01*
X68158402Y-54593029D01*
X68158399Y-54593034D01*
X68031575Y-54774159D01*
X67987257Y-54813025D01*
X67930000Y-54827036D01*
X67872743Y-54813025D01*
X67828425Y-54774159D01*
X67742975Y-54652123D01*
X67698495Y-54588599D01*
X67531401Y-54421505D01*
X67526970Y-54418402D01*
X67526966Y-54418399D01*
X67342259Y-54289066D01*
X67342257Y-54289064D01*
X67337830Y-54285965D01*
X67332933Y-54283681D01*
X67332927Y-54283678D01*
X67128572Y-54188386D01*
X67128570Y-54188385D01*
X67123663Y-54186097D01*
X67118438Y-54184697D01*
X67118430Y-54184694D01*
X66900634Y-54126337D01*
X66900630Y-54126336D01*
X66895408Y-54124937D01*
X66890020Y-54124465D01*
X66890017Y-54124465D01*
X66665395Y-54104813D01*
X66660000Y-54104341D01*
X66654605Y-54104813D01*
X66429982Y-54124465D01*
X66429977Y-54124465D01*
X66424592Y-54124937D01*
X66419371Y-54126335D01*
X66419365Y-54126337D01*
X66201569Y-54184694D01*
X66201557Y-54184698D01*
X66196337Y-54186097D01*
X66191432Y-54188383D01*
X66191427Y-54188386D01*
X65987081Y-54283675D01*
X65987077Y-54283677D01*
X65982171Y-54285965D01*
X65977738Y-54289068D01*
X65977731Y-54289073D01*
X65793034Y-54418399D01*
X65793029Y-54418402D01*
X65788599Y-54421505D01*
X65784775Y-54425328D01*
X65784769Y-54425334D01*
X65625334Y-54584769D01*
X65625328Y-54584775D01*
X65621505Y-54588599D01*
X65618403Y-54593028D01*
X65618403Y-54593029D01*
X65491574Y-54774160D01*
X65447256Y-54813025D01*
X65389999Y-54827036D01*
X65332742Y-54813025D01*
X65288426Y-54774161D01*
X65158495Y-54588599D01*
X64991401Y-54421505D01*
X64986970Y-54418402D01*
X64986966Y-54418399D01*
X64802259Y-54289066D01*
X64802257Y-54289064D01*
X64797830Y-54285965D01*
X64792933Y-54283681D01*
X64792927Y-54283678D01*
X64588572Y-54188386D01*
X64588570Y-54188385D01*
X64583663Y-54186097D01*
X64578438Y-54184697D01*
X64578430Y-54184694D01*
X64360634Y-54126337D01*
X64360630Y-54126336D01*
X64355408Y-54124937D01*
X64350020Y-54124465D01*
X64350017Y-54124465D01*
X64125395Y-54104813D01*
X64120000Y-54104341D01*
X64114605Y-54104813D01*
X63889982Y-54124465D01*
X63889977Y-54124465D01*
X63884592Y-54124937D01*
X63879371Y-54126335D01*
X63879365Y-54126337D01*
X63661569Y-54184694D01*
X63661557Y-54184698D01*
X63656337Y-54186097D01*
X63651432Y-54188383D01*
X63651427Y-54188386D01*
X63447081Y-54283675D01*
X63447077Y-54283677D01*
X63442171Y-54285965D01*
X63437738Y-54289068D01*
X63437731Y-54289073D01*
X63253034Y-54418399D01*
X63253029Y-54418402D01*
X63248599Y-54421505D01*
X63244775Y-54425328D01*
X63244769Y-54425334D01*
X63085334Y-54584769D01*
X63085328Y-54584775D01*
X63081505Y-54588599D01*
X63078403Y-54593028D01*
X63078403Y-54593029D01*
X62951574Y-54774160D01*
X62907256Y-54813025D01*
X62849999Y-54827036D01*
X62792742Y-54813025D01*
X62748426Y-54774161D01*
X62618495Y-54588599D01*
X62451401Y-54421505D01*
X62446970Y-54418402D01*
X62446966Y-54418399D01*
X62262259Y-54289066D01*
X62262257Y-54289064D01*
X62257830Y-54285965D01*
X62252933Y-54283681D01*
X62252927Y-54283678D01*
X62048572Y-54188386D01*
X62048570Y-54188385D01*
X62043663Y-54186097D01*
X62038438Y-54184697D01*
X62038430Y-54184694D01*
X61820634Y-54126337D01*
X61820630Y-54126336D01*
X61815408Y-54124937D01*
X61810020Y-54124465D01*
X61810017Y-54124465D01*
X61585395Y-54104813D01*
X61580000Y-54104341D01*
X61574605Y-54104813D01*
X61349982Y-54124465D01*
X61349977Y-54124465D01*
X61344592Y-54124937D01*
X61339371Y-54126335D01*
X61339365Y-54126337D01*
X61121569Y-54184694D01*
X61121557Y-54184698D01*
X61116337Y-54186097D01*
X61111432Y-54188383D01*
X61111427Y-54188386D01*
X60907081Y-54283675D01*
X60907077Y-54283677D01*
X60902171Y-54285965D01*
X60897738Y-54289068D01*
X60897731Y-54289073D01*
X60713034Y-54418399D01*
X60713029Y-54418402D01*
X60708599Y-54421505D01*
X60704775Y-54425328D01*
X60704769Y-54425334D01*
X60545334Y-54584769D01*
X60545328Y-54584775D01*
X60541505Y-54588599D01*
X60538403Y-54593028D01*
X60538403Y-54593029D01*
X60411269Y-54774596D01*
X60366951Y-54813461D01*
X60309694Y-54827472D01*
X60252437Y-54813461D01*
X60208119Y-54774595D01*
X60081215Y-54593357D01*
X60074280Y-54585092D01*
X59914909Y-54425721D01*
X59906643Y-54418784D01*
X59722008Y-54289501D01*
X59712676Y-54284113D01*
X59508397Y-54188856D01*
X59498263Y-54185168D01*
X59303780Y-54133056D01*
X59292551Y-54132688D01*
X59290000Y-54143631D01*
X59290000Y-55586000D01*
X59273387Y-55648000D01*
X59228000Y-55693387D01*
X59166000Y-55710000D01*
X57723631Y-55710000D01*
X57712688Y-55712551D01*
X57713056Y-55723780D01*
X57765168Y-55918263D01*
X57768856Y-55928397D01*
X57864113Y-56132676D01*
X57869501Y-56142008D01*
X57998784Y-56326643D01*
X58005721Y-56334909D01*
X58123946Y-56453134D01*
X58155242Y-56505880D01*
X58157431Y-56567173D01*
X58129978Y-56622018D01*
X58079599Y-56656997D01*
X57972656Y-56696884D01*
X57947669Y-56706204D01*
X57940572Y-56711516D01*
X57940568Y-56711519D01*
X57839550Y-56787141D01*
X57839546Y-56787144D01*
X57832454Y-56792454D01*
X57827144Y-56799546D01*
X57827141Y-56799550D01*
X57751519Y-56900568D01*
X57751516Y-56900572D01*
X57746204Y-56907669D01*
X57743104Y-56915978D01*
X57743104Y-56915980D01*
X57698620Y-57035247D01*
X57698619Y-57035250D01*
X57695909Y-57042517D01*
X57695079Y-57050227D01*
X57695079Y-57050232D01*
X57689855Y-57098819D01*
X57689854Y-57098831D01*
X57689500Y-57102127D01*
X57689500Y-57105448D01*
X57689500Y-57105449D01*
X57689500Y-58894560D01*
X57689500Y-58894578D01*
X57689501Y-58897872D01*
X57689853Y-58901150D01*
X57689854Y-58901161D01*
X57695079Y-58949768D01*
X57695080Y-58949773D01*
X57695909Y-58957483D01*
X57698619Y-58964749D01*
X57698620Y-58964753D01*
X57726124Y-59038495D01*
X57746204Y-59092331D01*
X57751518Y-59099430D01*
X57751519Y-59099431D01*
X57807367Y-59174035D01*
X57832454Y-59207546D01*
X57947669Y-59293796D01*
X58082517Y-59344091D01*
X58142127Y-59350500D01*
X59865547Y-59350499D01*
X59921842Y-59364014D01*
X59965865Y-59401614D01*
X59988020Y-59455101D01*
X59983478Y-59512817D01*
X59953228Y-59562180D01*
X48577228Y-70938181D01*
X48537000Y-70965061D01*
X48489547Y-70974500D01*
X39674499Y-70974500D01*
X39612499Y-70957887D01*
X39567112Y-70912500D01*
X39550499Y-70850500D01*
X39550499Y-70705439D01*
X39550499Y-70702128D01*
X39544091Y-70642517D01*
X39493796Y-70507669D01*
X39407546Y-70392454D01*
X39292331Y-70306204D01*
X39157483Y-70255909D01*
X39149770Y-70255079D01*
X39149767Y-70255079D01*
X39101180Y-70249855D01*
X39101169Y-70249854D01*
X39097873Y-70249500D01*
X39094550Y-70249500D01*
X37305439Y-70249500D01*
X37305420Y-70249500D01*
X37302128Y-70249501D01*
X37298850Y-70249853D01*
X37298838Y-70249854D01*
X37250231Y-70255079D01*
X37250225Y-70255080D01*
X37242517Y-70255909D01*
X37235252Y-70258618D01*
X37235246Y-70258620D01*
X37115980Y-70303104D01*
X37115978Y-70303104D01*
X37107669Y-70306204D01*
X37100572Y-70311516D01*
X37100568Y-70311519D01*
X36999550Y-70387141D01*
X36999546Y-70387144D01*
X36992454Y-70392454D01*
X36987144Y-70399546D01*
X36987141Y-70399550D01*
X36911519Y-70500568D01*
X36911516Y-70500572D01*
X36906204Y-70507669D01*
X36903104Y-70515978D01*
X36903104Y-70515980D01*
X36858620Y-70635247D01*
X36858619Y-70635250D01*
X36855909Y-70642517D01*
X36855079Y-70650227D01*
X36855079Y-70650232D01*
X36849855Y-70698819D01*
X36849854Y-70698831D01*
X36849500Y-70702127D01*
X36849500Y-70705448D01*
X36849500Y-70705449D01*
X36849500Y-72494560D01*
X36849500Y-72494578D01*
X36849501Y-72497872D01*
X36849853Y-72501150D01*
X36849854Y-72501161D01*
X36855079Y-72549768D01*
X36855080Y-72549773D01*
X36855909Y-72557483D01*
X36858619Y-72564749D01*
X36858620Y-72564753D01*
X36892217Y-72654831D01*
X36906204Y-72692331D01*
X36992454Y-72807546D01*
X37107669Y-72893796D01*
X37217405Y-72934725D01*
X37239082Y-72942810D01*
X37289462Y-72977789D01*
X37316915Y-73032633D01*
X37314726Y-73093926D01*
X37283431Y-73146673D01*
X37161505Y-73268599D01*
X37158402Y-73273029D01*
X37158399Y-73273034D01*
X37029073Y-73457731D01*
X37029068Y-73457738D01*
X37025965Y-73462171D01*
X37023677Y-73467077D01*
X37023675Y-73467081D01*
X36928386Y-73671427D01*
X36928383Y-73671432D01*
X36926097Y-73676337D01*
X36924698Y-73681557D01*
X36924694Y-73681569D01*
X36866337Y-73899365D01*
X36866335Y-73899371D01*
X36864937Y-73904592D01*
X36844341Y-74140000D01*
X36300500Y-74140000D01*
X36300500Y-68201331D01*
X36300509Y-68200482D01*
X36300517Y-68200482D01*
X36300511Y-68200307D01*
X36300529Y-68198645D01*
X36300569Y-68196770D01*
X36302954Y-68086777D01*
X36308419Y-67877348D01*
X36309526Y-67863755D01*
X36329309Y-67719646D01*
X36329487Y-67718409D01*
X36355416Y-67546461D01*
X36357916Y-67534160D01*
X36395763Y-67386661D01*
X36396416Y-67384228D01*
X36441453Y-67223526D01*
X36445042Y-67212681D01*
X36500529Y-67067876D01*
X36501899Y-67064457D01*
X36565299Y-66913164D01*
X36569682Y-66903823D01*
X36642059Y-66765027D01*
X36644347Y-66760846D01*
X36725208Y-66619748D01*
X36730103Y-66611904D01*
X36818287Y-66481732D01*
X36821698Y-66476950D01*
X36918949Y-66347409D01*
X36924033Y-66341084D01*
X37026765Y-66221605D01*
X37031496Y-66216413D01*
X37143794Y-66100033D01*
X37148811Y-66095123D01*
X37264526Y-65988212D01*
X37270675Y-65982896D01*
X37396654Y-65881090D01*
X37401339Y-65877489D01*
X37528295Y-65784705D01*
X37535909Y-65779567D01*
X37674072Y-65693696D01*
X37678117Y-65691291D01*
X37814294Y-65613976D01*
X37823464Y-65609268D01*
X37972341Y-65540535D01*
X37975700Y-65539046D01*
X38118500Y-65478398D01*
X38129219Y-65474421D01*
X38288153Y-65423696D01*
X38290523Y-65422968D01*
X38436679Y-65379851D01*
X38448841Y-65376924D01*
X38619623Y-65344899D01*
X38621046Y-65344642D01*
X38764326Y-65319733D01*
X38777853Y-65318145D01*
X38986985Y-65305206D01*
X39096432Y-65298919D01*
X39103571Y-65298716D01*
X44799911Y-65300499D01*
X44800024Y-65300541D01*
X44800194Y-65300460D01*
X44800383Y-65300383D01*
X44800429Y-65300270D01*
X48000292Y-61800419D01*
X48000382Y-61800383D01*
X48000427Y-61800271D01*
X48000435Y-61800264D01*
X48000464Y-61800182D01*
X48000499Y-61800099D01*
X48000499Y-61800087D01*
X48000540Y-61799975D01*
X48000499Y-61799887D01*
X48002309Y-58707296D01*
X52647574Y-58707296D01*
X52654848Y-58715482D01*
X52883620Y-58881694D01*
X52890210Y-58885876D01*
X53159032Y-59033662D01*
X53166071Y-59036975D01*
X53451307Y-59149907D01*
X53458702Y-59152310D01*
X53755837Y-59228602D01*
X53763495Y-59230063D01*
X54067846Y-59268511D01*
X54075608Y-59269000D01*
X54382392Y-59269000D01*
X54390153Y-59268511D01*
X54694504Y-59230063D01*
X54702162Y-59228602D01*
X54999297Y-59152310D01*
X55006692Y-59149907D01*
X55291928Y-59036975D01*
X55298967Y-59033662D01*
X55567798Y-58885872D01*
X55574368Y-58881702D01*
X55803153Y-58715480D01*
X55810424Y-58707297D01*
X55804520Y-58698073D01*
X54240542Y-57134095D01*
X54228999Y-57127431D01*
X54217457Y-57134095D01*
X52653478Y-58698073D01*
X52647574Y-58707296D01*
X48002309Y-58707296D01*
X48003441Y-56772894D01*
X51724302Y-56772894D01*
X51743564Y-57079059D01*
X51744538Y-57086779D01*
X51802023Y-57388124D01*
X51803959Y-57395663D01*
X51898759Y-57687426D01*
X51901622Y-57694657D01*
X52032243Y-57972240D01*
X52035987Y-57979051D01*
X52200368Y-58238075D01*
X52204942Y-58244371D01*
X52282249Y-58337819D01*
X52293547Y-58345584D01*
X52305532Y-58338913D01*
X53863904Y-56780542D01*
X53870568Y-56769000D01*
X54587431Y-56769000D01*
X54594095Y-56780542D01*
X56152467Y-58338914D01*
X56164449Y-58345584D01*
X56175751Y-58337816D01*
X56253054Y-58244374D01*
X56257630Y-58238076D01*
X56422012Y-57979051D01*
X56425756Y-57972240D01*
X56556377Y-57694657D01*
X56559240Y-57687426D01*
X56654040Y-57395663D01*
X56655976Y-57388124D01*
X56713461Y-57086779D01*
X56714435Y-57079059D01*
X56733698Y-56772894D01*
X56733698Y-56765106D01*
X56714435Y-56458940D01*
X56713461Y-56451220D01*
X56655976Y-56149875D01*
X56654040Y-56142336D01*
X56559240Y-55850573D01*
X56556377Y-55843342D01*
X56425756Y-55565759D01*
X56422012Y-55558948D01*
X56257631Y-55299924D01*
X56253057Y-55293628D01*
X56181762Y-55207448D01*
X57712688Y-55207448D01*
X57723631Y-55210000D01*
X58773674Y-55210000D01*
X58786549Y-55206549D01*
X58790000Y-55193674D01*
X58790000Y-54143631D01*
X58787448Y-54132688D01*
X58776219Y-54133056D01*
X58581736Y-54185168D01*
X58571602Y-54188856D01*
X58367332Y-54284110D01*
X58357982Y-54289508D01*
X58173357Y-54418784D01*
X58165092Y-54425719D01*
X58005719Y-54585092D01*
X57998784Y-54593357D01*
X57869508Y-54777982D01*
X57864110Y-54787332D01*
X57768856Y-54991602D01*
X57765168Y-55001736D01*
X57713056Y-55196219D01*
X57712688Y-55207448D01*
X56181762Y-55207448D01*
X56175749Y-55200179D01*
X56164450Y-55192414D01*
X56152467Y-55199084D01*
X54594095Y-56757457D01*
X54587431Y-56769000D01*
X53870568Y-56769000D01*
X53863904Y-56757457D01*
X52305532Y-55199085D01*
X52293548Y-55192415D01*
X52282247Y-55200182D01*
X52204940Y-55293631D01*
X52200373Y-55299917D01*
X52035987Y-55558948D01*
X52032243Y-55565759D01*
X51901622Y-55843342D01*
X51898759Y-55850573D01*
X51803959Y-56142336D01*
X51802023Y-56149875D01*
X51744538Y-56451220D01*
X51743564Y-56458940D01*
X51724302Y-56765106D01*
X51724302Y-56772894D01*
X48003441Y-56772894D01*
X48004578Y-54830702D01*
X52647574Y-54830702D01*
X52653480Y-54839927D01*
X54217457Y-56403904D01*
X54229000Y-56410568D01*
X54240542Y-56403904D01*
X55804518Y-54839927D01*
X55810424Y-54830702D01*
X55803150Y-54822516D01*
X55574379Y-54656305D01*
X55567789Y-54652123D01*
X55298967Y-54504337D01*
X55291928Y-54501024D01*
X55006692Y-54388092D01*
X54999297Y-54385689D01*
X54702162Y-54309397D01*
X54694504Y-54307936D01*
X54390153Y-54269488D01*
X54382392Y-54269000D01*
X54075608Y-54269000D01*
X54067846Y-54269488D01*
X53763495Y-54307936D01*
X53755837Y-54309397D01*
X53458702Y-54385689D01*
X53451307Y-54388092D01*
X53166071Y-54501024D01*
X53159032Y-54504337D01*
X52890210Y-54652123D01*
X52883620Y-54656305D01*
X52654848Y-54822516D01*
X52647574Y-54830702D01*
X48004578Y-54830702D01*
X48005761Y-52809806D01*
X48007138Y-52791461D01*
X48026284Y-52664120D01*
X48061859Y-52433191D01*
X48064054Y-52422256D01*
X48105592Y-52254906D01*
X48105752Y-52254276D01*
X48155667Y-52062118D01*
X48158659Y-52052299D01*
X48217950Y-51883261D01*
X48218606Y-51881445D01*
X48285218Y-51701996D01*
X48288809Y-51693343D01*
X48364850Y-51528152D01*
X48366172Y-51525377D01*
X48449306Y-51356194D01*
X48453281Y-51348760D01*
X48545184Y-51190263D01*
X48547203Y-51186906D01*
X48646359Y-51028053D01*
X48650551Y-51021776D01*
X48757336Y-50872047D01*
X48760225Y-50868161D01*
X48874521Y-50720683D01*
X48878726Y-50715552D01*
X48999310Y-50576273D01*
X49003192Y-50571996D01*
X49131655Y-50437000D01*
X49135713Y-50432932D01*
X49268872Y-50305567D01*
X49273787Y-50301115D01*
X49415419Y-50179649D01*
X49419105Y-50176613D01*
X49563402Y-50062503D01*
X49569500Y-50057979D01*
X49723204Y-49951100D01*
X49726431Y-49948932D01*
X49880179Y-49849286D01*
X49887428Y-49844934D01*
X50052466Y-49753416D01*
X50054965Y-49752072D01*
X50216214Y-49667921D01*
X50224644Y-49663921D01*
X50400694Y-49588444D01*
X50402381Y-49587739D01*
X50568288Y-49520136D01*
X50577931Y-49516667D01*
X50767317Y-49457309D01*
X50768052Y-49457083D01*
X50933074Y-49407321D01*
X50943916Y-49404580D01*
X51172846Y-49357592D01*
X51295943Y-49332790D01*
X51320389Y-49330348D01*
X119998561Y-49310216D01*
X119999511Y-49310227D01*
G37*
%TD.AperFunction*%
%TD*%
M02*
