%TF.GenerationSoftware,KiCad,Pcbnew,(7.0.0)*%
%TF.CreationDate,2023-07-17T15:36:44+02:00*%
%TF.ProjectId,SupportCoral,53757070-6f72-4744-936f-72616c2e6b69,rev?*%
%TF.SameCoordinates,Original*%
%TF.FileFunction,Soldermask,Top*%
%TF.FilePolarity,Negative*%
%FSLAX46Y46*%
G04 Gerber Fmt 4.6, Leading zero omitted, Abs format (unit mm)*
G04 Created by KiCad (PCBNEW (7.0.0)) date 2023-07-17 15:36:44*
%MOMM*%
%LPD*%
G01*
G04 APERTURE LIST*
%ADD10R,1.700000X1.700000*%
%ADD11O,1.700000X1.700000*%
%ADD12C,6.500000*%
%ADD13C,1.524000*%
G04 APERTURE END LIST*
D10*
%TO.C,REF\u002A\u002A*%
X59039999Y-57999999D03*
D11*
X59039999Y-55459999D03*
X61579999Y-57999999D03*
X61579999Y-55459999D03*
X64119999Y-57999999D03*
X64119999Y-55459999D03*
X66659999Y-57999999D03*
X66659999Y-55459999D03*
X69199999Y-57999999D03*
X69199999Y-55459999D03*
X71739999Y-57999999D03*
X71739999Y-55459999D03*
X74279999Y-57999999D03*
X74279999Y-55459999D03*
X76819999Y-57999999D03*
X76819999Y-55459999D03*
X79359999Y-57999999D03*
X79359999Y-55459999D03*
X81899999Y-57999999D03*
X81899999Y-55459999D03*
X84439999Y-57999999D03*
X84439999Y-55459999D03*
X86979999Y-57999999D03*
X86979999Y-55459999D03*
X89519999Y-57999999D03*
X89519999Y-55459999D03*
X92059999Y-57999999D03*
X92059999Y-55459999D03*
X94599999Y-57999999D03*
X94599999Y-55459999D03*
X97139999Y-57999999D03*
X97139999Y-55459999D03*
X99679999Y-57999999D03*
X99679999Y-55459999D03*
X102219999Y-57999999D03*
X102219999Y-55459999D03*
X104759999Y-57999999D03*
X104759999Y-55459999D03*
X107299999Y-57999999D03*
X107299999Y-55459999D03*
%TD*%
D12*
%TO.C,REF\u002A\u002A*%
X54229000Y-56769000D03*
%TD*%
%TO.C,REF\u002A\u002A*%
X112141000Y-56769000D03*
%TD*%
D10*
%TO.C,Motion sensor*%
X38199999Y-71599999D03*
D11*
X38199999Y-74139999D03*
X38199999Y-76679999D03*
%TD*%
D13*
%TO.C,Alhora*%
X104600000Y-65000000D03*
X102060000Y-65000000D03*
X99520000Y-65000000D03*
X94440000Y-65000000D03*
X91900000Y-65000000D03*
X89360000Y-65000000D03*
X86820000Y-65000000D03*
X84280000Y-65000000D03*
X81740000Y-65000000D03*
X79200000Y-65000000D03*
X76660000Y-65000000D03*
X74120000Y-65000000D03*
X102060000Y-87860000D03*
X104600000Y-87860000D03*
X99520000Y-87860000D03*
X96980000Y-87860000D03*
X94440000Y-87860000D03*
X86820000Y-87860000D03*
X84280000Y-87860000D03*
X81740000Y-87860000D03*
X79200000Y-87860000D03*
X76660000Y-87860000D03*
X74120000Y-87860000D03*
X96980000Y-65000000D03*
X91900000Y-87860000D03*
X89360000Y-87860000D03*
%TD*%
M02*
