M48
; DRILL file {KiCad (7.0.0)} date Mon Jul 17 15:43:12 2023
; FORMAT={-:-/ absolute / inch / decimal}
; #@! TF.CreationDate,2023-07-17T15:43:12+02:00
; #@! TF.GenerationSoftware,Kicad,Pcbnew,(7.0.0)
; #@! TF.FileFunction,Plated,1,2,PTH
FMAT,2
INCH
; #@! TA.AperFunction,Plated,PTH,ComponentDrill
T1C0.0300
; #@! TA.AperFunction,Plated,PTH,ComponentDrill
T2C0.0394
; #@! TA.AperFunction,Plated,PTH,ComponentDrill
T3C0.1102
%
G90
G05
T1
X2.5827Y-2.5787
X2.5827Y-3.4787
X2.6827Y-2.5787
X2.6827Y-3.4787
X2.7827Y-2.5787
X2.7827Y-3.4787
X2.8827Y-2.5787
X2.8827Y-3.4787
X2.9827Y-2.5787
X2.9827Y-3.4787
X3.0827Y-2.5787
X3.0827Y-3.4787
X3.1827Y-2.5787
X3.1827Y-3.4787
X3.2827Y-2.5787
X3.2827Y-3.4787
X3.3827Y-2.5787
X3.3827Y-3.4787
X3.4827Y-2.5787
X3.4827Y-3.4787
X3.5827Y-2.5787
X3.5827Y-3.4787
X3.6827Y-2.5787
X3.6827Y-3.4787
X3.7827Y-2.5787
X3.7827Y-3.4787
T2
X2.3244Y-2.1835
X2.3244Y-2.2835
X2.4244Y-2.1835
X2.4244Y-2.2835
X2.5244Y-2.1835
X2.5244Y-2.2835
X2.6244Y-2.1835
X2.6244Y-2.2835
X2.7244Y-2.1835
X2.7244Y-2.2835
X2.8244Y-2.1835
X2.8244Y-2.2835
X2.9244Y-2.1835
X2.9244Y-2.2835
X3.0244Y-2.1835
X3.0244Y-2.2835
X3.1244Y-2.1835
X3.1244Y-2.2835
X3.2244Y-2.1835
X3.2244Y-2.2835
X3.3244Y-2.1835
X3.3244Y-2.2835
X3.4244Y-2.1835
X3.4244Y-2.2835
X3.5244Y-2.1835
X3.5244Y-2.2835
X3.6244Y-2.1835
X3.6244Y-2.2835
X3.7244Y-2.1835
X3.7244Y-2.2835
X3.8244Y-2.1835
X3.8244Y-2.2835
X3.9244Y-2.1835
X3.9244Y-2.2835
X4.0244Y-2.1835
X4.0244Y-2.2835
X4.1244Y-2.1835
X4.1244Y-2.2835
X4.2244Y-2.1835
X4.2244Y-2.2835
T3
X2.135Y-2.235
X4.415Y-2.235
T0
M30
