%TF.GenerationSoftware,KiCad,Pcbnew,(7.0.0)*%
%TF.CreationDate,2023-07-17T15:43:14+02:00*%
%TF.ProjectId,SupportPizero,53757070-6f72-4745-9069-7a65726f2e6b,rev?*%
%TF.SameCoordinates,Original*%
%TF.FileFunction,Soldermask,Bot*%
%TF.FilePolarity,Negative*%
%FSLAX46Y46*%
G04 Gerber Fmt 4.6, Leading zero omitted, Abs format (unit mm)*
G04 Created by KiCad (PCBNEW (7.0.0)) date 2023-07-17 15:43:14*
%MOMM*%
%LPD*%
G01*
G04 APERTURE LIST*
%ADD10R,1.700000X1.700000*%
%ADD11O,1.700000X1.700000*%
%ADD12C,6.500000*%
%ADD13C,1.524000*%
G04 APERTURE END LIST*
D10*
%TO.C,REF\u002A\u002A*%
X59039999Y-57999999D03*
D11*
X59039999Y-55459999D03*
X61579999Y-57999999D03*
X61579999Y-55459999D03*
X64119999Y-57999999D03*
X64119999Y-55459999D03*
X66659999Y-57999999D03*
X66659999Y-55459999D03*
X69199999Y-57999999D03*
X69199999Y-55459999D03*
X71739999Y-57999999D03*
X71739999Y-55459999D03*
X74279999Y-57999999D03*
X74279999Y-55459999D03*
X76819999Y-57999999D03*
X76819999Y-55459999D03*
X79359999Y-57999999D03*
X79359999Y-55459999D03*
X81899999Y-57999999D03*
X81899999Y-55459999D03*
X84439999Y-57999999D03*
X84439999Y-55459999D03*
X86979999Y-57999999D03*
X86979999Y-55459999D03*
X89519999Y-57999999D03*
X89519999Y-55459999D03*
X92059999Y-57999999D03*
X92059999Y-55459999D03*
X94599999Y-57999999D03*
X94599999Y-55459999D03*
X97139999Y-57999999D03*
X97139999Y-55459999D03*
X99679999Y-57999999D03*
X99679999Y-55459999D03*
X102219999Y-57999999D03*
X102219999Y-55459999D03*
X104759999Y-57999999D03*
X104759999Y-55459999D03*
X107299999Y-57999999D03*
X107299999Y-55459999D03*
%TD*%
D12*
%TO.C,REF\u002A\u002A*%
X54229000Y-56769000D03*
%TD*%
%TO.C,REF\u002A\u002A*%
X112141000Y-56769000D03*
%TD*%
D13*
%TO.C,Alhora*%
X96080000Y-65500000D03*
X93540000Y-65500000D03*
X91000000Y-65500000D03*
X85920000Y-65500000D03*
X83380000Y-65500000D03*
X80840000Y-65500000D03*
X78300000Y-65500000D03*
X75760000Y-65500000D03*
X73220000Y-65500000D03*
X70680000Y-65500000D03*
X68140000Y-65500000D03*
X65600000Y-65500000D03*
X93540000Y-88360000D03*
X96080000Y-88360000D03*
X91000000Y-88360000D03*
X88460000Y-88360000D03*
X85920000Y-88360000D03*
X78300000Y-88360000D03*
X75760000Y-88360000D03*
X73220000Y-88360000D03*
X70680000Y-88360000D03*
X68140000Y-88360000D03*
X65600000Y-88360000D03*
X88460000Y-65500000D03*
X83380000Y-88360000D03*
X80840000Y-88360000D03*
%TD*%
M02*
