%TF.GenerationSoftware,KiCad,Pcbnew,(7.0.0)*%
%TF.CreationDate,2023-07-17T15:43:13+02:00*%
%TF.ProjectId,SupportPizero,53757070-6f72-4745-9069-7a65726f2e6b,rev?*%
%TF.SameCoordinates,Original*%
%TF.FileFunction,Drillmap*%
%TF.FilePolarity,Positive*%
%FSLAX45Y45*%
G04 Gerber Fmt 4.5, Leading zero omitted, Abs format (unit mm)*
G04 Created by KiCad (PCBNEW (7.0.0)) date 2023-07-17 15:43:13*
%MOMM*%
%LPD*%
G01*
G04 APERTURE LIST*
%ADD10C,0.100000*%
%ADD11C,0.200000*%
G04 APERTURE END LIST*
D10*
X5130800Y-4932985D02*
G75*
G03*
X4800527Y-5280054I59200J-387015D01*
G01*
X11920340Y-8650052D02*
X11919724Y-5349976D01*
X11360695Y-9230000D02*
X4800000Y-9230000D01*
X4800527Y-5280054D02*
X4800000Y-9230000D01*
X11919729Y-5349976D02*
G75*
G03*
X11500695Y-4930972I-409029J9976D01*
G01*
X11360695Y-9229995D02*
G75*
G03*
X11920340Y-8650052I5J559995D01*
G01*
X5130800Y-4932985D02*
X11500695Y-4930972D01*
D11*
X5042619Y-9528476D02*
X5042619Y-9328476D01*
X5042619Y-9328476D02*
X5090238Y-9328476D01*
X5090238Y-9328476D02*
X5118810Y-9338000D01*
X5118810Y-9338000D02*
X5137857Y-9357048D01*
X5137857Y-9357048D02*
X5147381Y-9376095D01*
X5147381Y-9376095D02*
X5156905Y-9414190D01*
X5156905Y-9414190D02*
X5156905Y-9442762D01*
X5156905Y-9442762D02*
X5147381Y-9480857D01*
X5147381Y-9480857D02*
X5137857Y-9499905D01*
X5137857Y-9499905D02*
X5118810Y-9518952D01*
X5118810Y-9518952D02*
X5090238Y-9528476D01*
X5090238Y-9528476D02*
X5042619Y-9528476D01*
X5242619Y-9528476D02*
X5242619Y-9395143D01*
X5242619Y-9433238D02*
X5252143Y-9414190D01*
X5252143Y-9414190D02*
X5261667Y-9404667D01*
X5261667Y-9404667D02*
X5280714Y-9395143D01*
X5280714Y-9395143D02*
X5299762Y-9395143D01*
X5366429Y-9528476D02*
X5366429Y-9395143D01*
X5366429Y-9328476D02*
X5356905Y-9338000D01*
X5356905Y-9338000D02*
X5366429Y-9347524D01*
X5366429Y-9347524D02*
X5375952Y-9338000D01*
X5375952Y-9338000D02*
X5366429Y-9328476D01*
X5366429Y-9328476D02*
X5366429Y-9347524D01*
X5490238Y-9528476D02*
X5471190Y-9518952D01*
X5471190Y-9518952D02*
X5461667Y-9499905D01*
X5461667Y-9499905D02*
X5461667Y-9328476D01*
X5595000Y-9528476D02*
X5575952Y-9518952D01*
X5575952Y-9518952D02*
X5566429Y-9499905D01*
X5566429Y-9499905D02*
X5566429Y-9328476D01*
X5791190Y-9528476D02*
X5791190Y-9328476D01*
X5791190Y-9328476D02*
X5857857Y-9471333D01*
X5857857Y-9471333D02*
X5924524Y-9328476D01*
X5924524Y-9328476D02*
X5924524Y-9528476D01*
X6105476Y-9528476D02*
X6105476Y-9423714D01*
X6105476Y-9423714D02*
X6095952Y-9404667D01*
X6095952Y-9404667D02*
X6076905Y-9395143D01*
X6076905Y-9395143D02*
X6038809Y-9395143D01*
X6038809Y-9395143D02*
X6019762Y-9404667D01*
X6105476Y-9518952D02*
X6086428Y-9528476D01*
X6086428Y-9528476D02*
X6038809Y-9528476D01*
X6038809Y-9528476D02*
X6019762Y-9518952D01*
X6019762Y-9518952D02*
X6010238Y-9499905D01*
X6010238Y-9499905D02*
X6010238Y-9480857D01*
X6010238Y-9480857D02*
X6019762Y-9461810D01*
X6019762Y-9461810D02*
X6038809Y-9452286D01*
X6038809Y-9452286D02*
X6086428Y-9452286D01*
X6086428Y-9452286D02*
X6105476Y-9442762D01*
X6200714Y-9395143D02*
X6200714Y-9595143D01*
X6200714Y-9404667D02*
X6219762Y-9395143D01*
X6219762Y-9395143D02*
X6257857Y-9395143D01*
X6257857Y-9395143D02*
X6276905Y-9404667D01*
X6276905Y-9404667D02*
X6286428Y-9414190D01*
X6286428Y-9414190D02*
X6295952Y-9433238D01*
X6295952Y-9433238D02*
X6295952Y-9490381D01*
X6295952Y-9490381D02*
X6286428Y-9509429D01*
X6286428Y-9509429D02*
X6276905Y-9518952D01*
X6276905Y-9518952D02*
X6257857Y-9528476D01*
X6257857Y-9528476D02*
X6219762Y-9528476D01*
X6219762Y-9528476D02*
X6200714Y-9518952D01*
X6381667Y-9509429D02*
X6391190Y-9518952D01*
X6391190Y-9518952D02*
X6381667Y-9528476D01*
X6381667Y-9528476D02*
X6372143Y-9518952D01*
X6372143Y-9518952D02*
X6381667Y-9509429D01*
X6381667Y-9509429D02*
X6381667Y-9528476D01*
X6381667Y-9404667D02*
X6391190Y-9414190D01*
X6391190Y-9414190D02*
X6381667Y-9423714D01*
X6381667Y-9423714D02*
X6372143Y-9414190D01*
X6372143Y-9414190D02*
X6381667Y-9404667D01*
X6381667Y-9404667D02*
X6381667Y-9423714D01*
M02*
